{
.appVersion = "1286";
classes = (
{
code = "ue_zanb u_zanb finalConsonantMark_zanb virama_zanb finalYa_zanb finalRa_zanb finalLa_zanb finalVa_zanb finalVa_zanb.stem a_zanb.sub ka_zanb.sub kha_zanb.sub ga_zanb.sub gha_zanb.sub nga_zanb.sub ca_zanb.sub cha_zanb.sub ja_zanb.sub nya_zanb.sub tta_zanb.sub ttha_zanb.sub dda_zanb.sub ddha_zanb.sub nna_zanb.sub ta_zanb.sub tha_zanb.sub da_zanb.sub dha_zanb.sub na_zanb.sub pa_zanb.sub pha_zanb.sub ba_zanb.sub bha_zanb.sub ma_zanb.sub tsa_zanb.sub tsha_zanb.sub dza_zanb.sub dzha_zanb.sub zha_zanb.sub za_zanb.sub aa_zanb.sub ya_zanb.sub ra_zanb.sub la_zanb.sub va_zanb.sub sha_zanb.sub ssa_zanb.sub sa_zanb.sub ha_zanb.sub kssa_zanb.sub ka_zanb.short ga_zanb.short nga_zanb.short ca_zanb.short ja_zanb.short nya_zanb.short ta_zanb.short da_zanb.short na_zanb.short pa_zanb.short ba_zanb.short ma_zanb.short tsa_zanb.short dza_zanb.short ha_zanb.short";
name = MF0;
},
{
code = "i_zanb i_zanb.wide e_zanb e_zanb.wide e_zanb.wide.ai oe_zanb oe_zanb.wide o_zanb o_zanb.wide ai_zanb au_zanb reversed_i_zanb reversed_i_zanb.wide candrabindu_zanb candrabinduWithOrnament_zanb candraWithOrnament_zanb anusvara_zanb o_zanb.wide.ai o_zanb.ai o_zanb.wide.au o_zanb.au";
name = MF1;
},
{
code = a_zanb.sub;
name = MF2;
},
{
code = "i_zanb i_zanb.wide reversed_i_zanb reversed_i_zanb.wide e_zanb e_zanb.wide o_zanb o_zanb.wide oe_zanb oe_zanb.wide o_zanb.wide.ai o_zanb.ai o_zanb.wide.au o_zanb.au";
name = MA1;
},
{
code = "ai_zanb au_zanb";
name = MA2;
},
{
code = "u_zanb u_zanb.wide ue_zanb ue_zanb.wide";
name = MA3;
}
);
copyright = "Copyright 2019 Google Inc. All Rights Reserved.";
customParameters = (
{
name = glyphOrder;
value = (
.notdef,
NULL,
CR,
space,
nbspace,
dottedCircle,
i_zanb,
i_zanb.wide,
ue_zanb,
ue_zanb.wide,
u_zanb,
u_zanb.wide,
e_zanb,
e_zanb.wide,
e_zanb.wide.ai,
e_zanb.ai,
oe_zanb,
oe_zanb.wide,
o_zanb,
o_zanb.wide,
o_zanb.wide.ai,
o_zanb.ai,
o_zanb.wide.au,
o_zanb.au,
ai_zanb,
au_zanb,
reversed_i_zanb,
reversed_i_zanb.wide,

glyphs = (
{
glyphname = .notdef;
lastChange = "2020-01-25 05:19:36 +0000";
layers = (
{
layerId = "CD31F824-B3E8-4361-8C79-B14E59C0EC84";
paths = (
{
closed = 1;
nodes = (
"505 0 LINE",
"505 714 LINE",
"94 714 LINE",
"94 0 LINE"
);
},
{
closed = 1;
nodes = (
"145 663 LINE",
"454 663 LINE",
"454 51 LINE",
"145 51 LINE"
);
}
);
width = 600;
}
);
},
{
glyphname = dottedCircle;
lastChange = "2020-01-25 05:19:36 +0000";
layers = (
{
anchors = (
{
name = anudatta;
position = "{295, -73}";
},
{
name = anusvara;
position = "{600, 0}";
},
{
name = bottom;
position = "{295, -12}";
},
{
name = bottom1;
position = "{295, -12}";
},
{
name = iiMatra;
position = "{387, 614}";
},
{
name = post;
position = "{600, 0}";
},
{
name = repha;
position = "{600, 0}";
},
{
name = svara;
position = "{295, 900}";
},
{
name = top;
position = "{295, 640}";
},
{
name = topleft;
position = "{88, 566}";
},
{
name = topright;
position = "{550, 566}";
},
{
name = vattu;
position = "{600, 0}";
},
{
name = virama;
position = "{436, 546}";
},
{
name = yaphalaa;
position = "{500, 0}";
}
);
guideLines = (
{
angle = 90;
position = "{2110, 366}";
}
);
layerId = "CD31F824-B3E8-4361-8C79-B14E59C0EC84";
paths = (
{
closed = 1;
nodes = (
"405 438 OFFCURVE",
"416 449 OFFCURVE",
"416 462 CURVE SMOOTH",
"416 475 OFFCURVE",
"405 486 OFFCURVE",
"392 486 CURVE SMOOTH",
"379 486 OFFCURVE",
"368 475 OFFCURVE",
"368 462 CURVE SMOOTH",
"368 449 OFFCURVE",
"379 438 OFFCURVE",
"392 438 CURVE SMOOTH"
);
},
{
closed = 1;
nodes = (
"138 172 OFFCURVE",
"149 183 OFFCURVE",
"149 196 CURVE SMOOTH",
"149 209 OFFCURVE",
"138 220 OFFCURVE",
"125 220 CURVE SMOOTH",
"112 220 OFFCURVE",
"101 209 OFFCURVE",
"101 196 CURVE SMOOTH",
"101 183 OFFCURVE",
"112 172 OFFCURVE",
"125 172 CURVE SMOOTH"
);
},
{
closed = 1;
nodes = (
"211 100 OFFCURVE",
"222 111 OFFCURVE",
"222 124 CURVE SMOOTH",
"222 137 OFFCURVE",
"211 148 OFFCURVE",
"198 148 CURVE SMOOTH",
"185 148 OFFCURVE",
"174 137 OFFCURVE",
"174 124 CURVE SMOOTH",
"174 111 OFFCURVE",
"185 100 OFFCURVE",
"198 100 CURVE SMOOTH"
);
},
{
closed = 1;
nodes = (
"114 267 OFFCURVE",
"125 278 OFFCURVE",
"125 291 CURVE SMOOTH",
"125 304 OFFCURVE",
"114 315 OFFCURVE",
"101 315 CURVE SMOOTH",
"88 315 OFFCURVE",
"77 304 OFFCURVE",
"77 291 CURVE SMOOTH",
"77 278 OFFCURVE",
"88 267 OFFCURVE",
"101 267 CURVE SMOOTH"
);
},
{
closed = 1;
nodes = (
"308 73 OFFCURVE",
"319 84 OFFCURVE",
"319 97 CURVE SMOOTH",
"319 110 OFFCURVE",
"308 121 OFFCURVE",
"295 121 CURVE SMOOTH",
"282 121 OFFCURVE",
"271 110 OFFCURVE",
"271 97 CURVE SMOOTH",
"271 84 OFFCURVE",
"282 73 OFFCURVE",
"295 73 CURVE SMOOTH"
);
},
{
closed = 1;
nodes = (
"406 101 OFFCURVE",
"417 112 OFFCURVE",
"417 125 CURVE SMOOTH",
"417 138 OFFCURVE",
"406 149 OFFCURVE",
"393 149 CURVE SMOOTH",
"380 149 OFFCURVE",
"369 138 OFFCURVE",
"369 125 CURVE SMOOTH",
"369 112 OFFCURVE",
"380 101 OFFCURVE",
"393 101 CURVE SMOOTH"
);
},
{
closed = 1;
nodes = (
"140 368 OFFCURVE",
"151 379 OFFCURVE",
"151 392 CURVE SMOOTH",
"151 405 OFFCURVE",
"140 416 OFFCURVE",
"127 416 CURVE SMOOTH",
"114 416 OFFCURVE",
"103 405 OFFCURVE",
"103 392 CURVE SMOOTH",
"103 379 OFFCURVE",
"114 368 OFFCURVE",
"127 368 CURVE SMOOTH"
);
},
{
closed = 1;
nodes = (
"211 438 OFFCURVE",
"222 449 OFFCURVE",
"222 462 CURVE SMOOTH",
"222 475 OFFCURVE",
"211 486 OFFCURVE",
"198 486 CURVE SMOOTH",
"185 486 OFFCURVE",
"174 475 OFFCURVE",
"174 462 CURVE SMOOTH",
"174 449 OFFCURVE",
"185 438 OFFCURVE",
"198 438 CURVE SMOOTH"
);
},
{
closed = 1;
nodes = (
"477 173 OFFCURVE",
"488 184 OFFCURVE",
"488 197 CURVE SMOOTH",
"488 210 OFFCURVE",
"477 221 OFFCURVE",
"464 221 CURVE SMOOTH",
"451 221 OFFCURVE",
"440 210 OFFCURVE",
"440 197 CURVE SMOOTH",
"440 184 OFFCURVE",
"451 173 OFFCURVE",
"464 173 CURVE SMOOTH"
);
},
{
closed = 1;
nodes = (
"308 462 OFFCURVE",
"319 473 OFFCURVE",
"319 486 CURVE SMOOTH",
"319 499 OFFCURVE",
"308 510 OFFCURVE",
"295 510 CURVE SMOOTH",
"282 510 OFFCURVE",
"271 499 OFFCURVE",
"271 486 CURVE SMOOTH",
"271 473 OFFCURVE",
"282 462 OFFCURVE",
"295 462 CURVE SMOOTH"
);
},
{
closed = 1;
nodes = (
"505 267 OFFCURVE",
"516 278 OFFCURVE",
"516 291 CURVE SMOOTH",
"516 304 OFFCURVE",
"505 315 OFFCURVE",
"492 315 CURVE SMOOTH",
"479 315 OFFCURVE",
"468 304 OFFCURVE",
"468 291 CURVE SMOOTH",
"468 278 OFFCURVE",
"479 267 OFFCURVE",
"492 267 CURVE SMOOTH"
);
},
{
closed = 1;
nodes = (
"475 366 OFFCURVE",
"486 377 OFFCURVE",
"486 390 CURVE SMOOTH",
"486 403 OFFCURVE",
"475 414 OFFCURVE",
"462 414 CURVE SMOOTH",
"449 414 OFFCURVE",
"438 403 OFFCURVE",
"438 390 CURVE SMOOTH",
"438 377 OFFCURVE",
"449 366 OFFCURVE",
"462 366 CURVE SMOOTH"
);
}
);
width = 600;
}
);
unicode = 25CC;
category = Letter;
},
{
glyphname = i_zanb;
lastChange = "2020-01-25 05:19:36 +0000";
layers = (
{
anchors = (
{
name = _top;
position = "{-413, 798}";
},
{
name = top;
position = "{-413, 1035}";
}
);
background = {
paths = (
{
closed = 1;
nodes = (
"158 845 OFFCURVE",
"282 967 OFFCURVE",
"432 967 CURVE SMOOTH",
"582 967 OFFCURVE",
"706 845 OFFCURVE",
"757 752 CURVE",
"751 752 LINE",
"676 816 OFFCURVE",
"562 878 OFFCURVE",
"432 881 CURVE SMOOTH",
"302 884 OFFCURVE",
"188 816 OFFCURVE",
"113 752 CURVE",
"107 752 LINE"
);
}
);
};
guideLines = (
{
position = "{838, 732}";
},
{
angle = 180;
position = "{432, 752}";
}
);
layerId = "CD31F824-B3E8-4361-8C79-B14E59C0EC84";
paths = (
{
closed = 1;
nodes = (
"-87 702 LINE",
"-138 795 OFFCURVE",
"-268 917 OFFCURVE",
"-433 917 CURVE SMOOTH",
"-568 917 OFFCURVE",
"-686 835 OFFCURVE",
"-737 752 CURVE",
"-731 752 LINE",
"-656 806 OFFCURVE",
"-542 833 OFFCURVE",
"-432 831 CURVE SMOOTH",
"-282 828 OFFCURVE",
"-168 766 OFFCURVE",
"-93 702 CURVE"
);
}
);
width = 0;
}
);
unicode = 11A01;
script = zanb;
category = Mark;
subCategory = Nonspacing;
},
{
glyphname = i_zanb.wide;
lastChange = "2020-01-25 05:19:36 +0000";
layers = (
{
anchors = (
{
name = _top;
position = "{-433, 798}";
},
{
name = top;
position = "{-433, 1005}";
}
);
background = {
paths = (
{
closed = 1;
nodes = (
"158 845 OFFCURVE",
"282 967 OFFCURVE",
"432 967 CURVE SMOOTH",
"582 967 OFFCURVE",
"706 845 OFFCURVE",
"757 752 CURVE",
"751 752 LINE",
"676 816 OFFCURVE",
"562 878 OFFCURVE",
"432 881 CURVE SMOOTH",
"302 884 OFFCURVE",
"188 816 OFFCURVE",
"113 752 CURVE",
"107 752 LINE"
);
}
);
};
guideLines = (
{
position = "{838, 732}";
},
{
angle = 180;
position = "{432, 752}";
}
);
layerId = "CD31F824-B3E8-4361-8C79-B14E59C0EC84";
paths = (
{
closed = 1;
nodes = (
"56 702 LINE",
"-37 805 OFFCURVE",
"-226 917 OFFCURVE",
"-472 917 CURVE SMOOTH",
"-690 917 OFFCURVE",
"-829 845 OFFCURVE",
"-912 752 CURVE",
"-903 752 LINE",
"-795 806 OFFCURVE",
"-671 833 OFFCURVE",
"-472 831 CURVE SMOOTH",
"-265 829 OFFCURVE",
"-61 766 OFFCURVE",
"47 702 CURVE"
);
}
);
width = 0;
}
);
script = zanb;
category = Mark;
subCategory = Nonspacing;
},
{
glyphname = ue_zanb;
lastChange = "2020-01-25 05:19:36 +0000";
layers = (
{
anchors = (
{
name = _bottom;
position = "{-420, -120}";
},
{
name = bottom;
position = "{-420, -419}";
}
);
layerId = "CD31F824-B3E8-4361-8C79-B14E59C0EC84";
paths = (
{
closed = 1;
nodes = (
"-265 -318 OFFCURVE",
"-129 -216 OFFCURVE",
"-80 -73 CURVE",
"-86 -73 LINE",
"-200 -190 OFFCURVE",
"-311 -232 OFFCURVE",
"-420 -232 CURVE SMOOTH",
"-530 -232 OFFCURVE",
"-639 -191 OFFCURVE",
"-754 -73 CURVE",
"-760 -73 LINE",
"-711 -216 OFFCURVE",
"-575 -318 OFFCURVE",
"-420 -318 CURVE SMOOTH"
);
}
);
width = 0;
}
);
unicode = 11A02;
script = zanb;
category = Mark;
subCategory = Nonspacing;
},
{
glyphname = ue_zanb.wide;
lastChange = "2020-01-25 05:19:36 +0000";
layers = (
{
anchors = (
{
name = _bottom;
position = "{-421, -120}";
},
{
name = bottom;
position = "{-570, -419}";
}
);
background = {
paths = (
{
closed = 1;
nodes = (
"-80 -244 LINE",
"-80 49 LINE",
"-128 49 LINE",
"-128 -146 LINE",
"-1058 -146 LINE",
"-1058 -244 LINE"
);
}
);
};
layerId = "CD31F824-B3E8-4361-8C79-B14E59C0EC84";
paths = (
{
closed = 1;
nodes = (
"-265 -318 OFFCURVE",
"-139 -196 OFFCURVE",
"-80 -73 CURVE",
"-86 -73 LINE",
"-210 -170 OFFCURVE",
"-311 -232 OFFCURVE",
"-570 -232 CURVE SMOOTH",
"-830 -232 OFFCURVE",
"-929 -171 OFFCURVE",
"-1054 -73 CURVE",
"-1060 -73 LINE",
"-1001 -196 OFFCURVE",
"-875 -318 OFFCURVE",
"-570 -318 CURVE SMOOTH"
);
}
);
width = 0;
}
);
script = zanb;
category = Mark;
subCategory = Nonspacing;
},
{
glyphname = u_zanb;
lastChange = "2020-01-25 05:19:36 +0000";
layers = (
{
anchors = (
{
name = _bottom_right;
position = "{-176, 38}";
}
);
layerId = "CD31F824-B3E8-4361-8C79-B14E59C0EC84";
paths = (
{
closed = 1;
nodes = (
"-80 -232 LINE",
"-80 49 LINE",
"-128 49 LINE",
"-128 -146 LINE",
"-760 -146 LINE",
"-760 -232 LINE"
);
}
);
width = 0;
}
);
unicode = 11A03;
script = zanb;
category = Mark;
subCategory = Nonspacing;
},
{
glyphname = u_zanb.wide;
lastChange = "2020-01-25 05:19:36 +0000";
layers = (
{
anchors = (
{
name = _bottom_right;
position = "{-176, 38}";
}
);
layerId = "CD31F824-B3E8-4361-8C79-B14E59C0EC84";
paths = (
{
closed = 1;
nodes = (
"-80 -232 LINE",
"-80 49 LINE",
"-128 49 LINE",
"-128 -146 LINE",
"-1058 -146 LINE",
"-1058 -232 LINE"
);
}
);
width = 0;
}
);
script = zanb;
category = Mark;
subCategory = Nonspacing;
},
{
glyphname = e_zanb;
lastChange = "2020-01-25 05:19:36 +0000";
layers = (
{
anchors = (
{
name = _top;
position = "{-420, 813}";
},
{
name = top;
position = "{-421, 995}";
}
);
layerId = "CD31F824-B3E8-4361-8C79-B14E59C0EC84";
paths = (
{
closed = 1;
nodes = (
"-80 641 LINE",
"-80 944 LINE",
"-760 944 LINE",
"-760 858 LINE",
"-142 858 LINE",
"-142 641 LINE"
);
}
);
width = 0;
}
);
unicode = 11A04;
script = zanb;
category = Mark;
subCategory = Nonspacing;
},
{
glyphname = e_zanb.wide;
lastChange = "2020-01-25 05:19:36 +0000";
layers = (
{
anchors = (
{
name = _top;
position = "{-568, 813}";
},
{
name = top;
position = "{-568, 965}";
}
);
layerId = "CD31F824-B3E8-4361-8C79-B14E59C0EC84";
paths = (
{
closed = 1;
nodes = (
"-80 641 LINE",
"-80 944 LINE",
"-1056 944 LINE",
"-1056 858 LINE",
"-142 858 LINE",
"-142 641 LINE"
);
}
);
width = 0;
}
);
script = zanb;
category = Mark;
subCategory = Nonspacing;
},
{
glyphname = e_zanb.wide.ai;
lastChange = "2020-01-25 05:19:36 +0000";
layers = (
{
anchors = (
{
name = _top;
position = "{-478, 813}";
},
{
name = top;
position = "{-478, 965}";
}
);
layerId = "CD31F824-B3E8-4361-8C79-B14E59C0EC84";
paths = (
{
closed = 1;
nodes = (
"-80 641 LINE",
"-80 944 LINE",
"-967 944 LINE",
"-967 858 LINE",
"-142 858 LINE",
"-142 641 LINE"
);
}
);
width = 0;
}
);
script = zanb;
category = Mark;
subCategory = Nonspacing;
},
{
glyphname = e_zanb.ai;
lastChange = "2020-01-25 05:19:36 +0000";
layers = (
{
anchors = (
{
name = _top;
position = "{-715, 811}";
},
{
name = top;
position = "{-715, 965}";
}
);
background = {
paths = (
{
closed = 1;
nodes = (
"422 732 LINE",
"495 879 LINE",
"763 879 LINE",
"763 977 LINE",
"495 977 LINE",
"422 830 LINE",
"348 977 LINE",
"80 977 LINE",
"80 879 LINE",
"348 879 LINE"
);
}
);
};
guideLines = (
{
angle = 90;
position = "{422, 776}";
}
);
layerId = "CD31F824-B3E8-4361-8C79-B14E59C0EC84";
paths = (
{
closed = 1;
nodes = (
"-488 641 LINE",
"-488 944 LINE",
"-1055 944 LINE",
"-1055 858 LINE",
"-550 858 LINE",
"-550 641 LINE"
);
}
);
width = 0;
}
);
script = zanb;
category = Mark;
subCategory = Nonspacing;
},
{
glyphname = oe_zanb;
lastChange = "2020-01-25 05:19:36 +0000";
layers = (
{
anchors = (
{
name = _top;
position = "{-420, 808}";
},
{
name = top;
position = "{-421, 965}";
}
);
layerId = "CD31F824-B3E8-4361-8C79-B14E59C0EC84";
paths = (
{
closed = 1;
nodes = (
"-395 641 LINE",
"-395 858 LINE",
"-80 858 LINE",
"-80 944 LINE",
"-760 944 LINE",
"-760 858 LINE",
"-445 858 LINE",
"-445 641 LINE"
);
}
);
width = 0;
}
);
unicode = 11A05;
script = zanb;
category = Mark;
subCategory = Nonspacing;
},
{
glyphname = oe_zanb.wide;
lastChange = "2020-01-25 05:19:36 +0000";
layers = (
{
anchors = (
{
name = _top;
position = "{-568, 808}";
},
{
name = top;
position = "{-569, 965}";
}
);
layerId = "CD31F824-B3E8-4361-8C79-B14E59C0EC84";
paths = (
{
closed = 1;
nodes = (
"-543 641 LINE",
"-543 858 LINE",
"-80 858 LINE",
"-80 944 LINE",
"-1056 944 LINE",
"-1056 858 LINE",
"-593 858 LINE",
"-593 641 LINE"
);
}
);
width = 0;
}
);
script = zanb;
category = Mark;
subCategory = Nonspacing;
},
{
glyphname = o_zanb;
lastChange = "2020-01-25 05:19:36 +0000";
layers = (
{
anchors = (
{
name = _top;
position = "{-419, 811}";
},
{
name = top;
position = "{-421, 994}";
}
);
background = {
paths = (
{
closed = 1;
nodes = (
"422 732 LINE",
"495 879 LINE",
"763 879 LINE",
"763 977 LINE",
"495 977 LINE",
"422 830 LINE",
"348 977 LINE",
"80 977 LINE",
"80 879 LINE",
"348 879 LINE"
);
}
);
};
guideLines = (
{
angle = 90;
position = "{422, 776}";
}
);
layerId = "CD31F824-B3E8-4361-8C79-B14E59C0EC84";
paths = (
{
closed = 1;
nodes = (
"-348 858 LINE",
"-80 858 LINE",
"-80 949 LINE",
"-92 949 LINE",
"-110 944 LINE",
"-363 944 LINE",
"-419 829 LINE",
"-423 829 LINE",
"-480 944 LINE",
"-733 944 LINE",
"-751 949 LINE",
"-763 949 LINE",
"-763 858 LINE",
"-495 858 LINE",
"-421 711 LINE"
);
}
);
width = 0;
}
);
unicode = 11A06;
script = zanb;
category = Mark;
subCategory = Nonspacing;
},
{
glyphname = o_zanb.wide;
lastChange = "2020-01-25 05:19:36 +0000";
layers = (
{
anchors = (
{
name = _top;
position = "{-569, 811}";
},
{
name = top;
position = "{-569, 994}";
}
);
background = {
paths = (
{
closed = 1;
nodes = (
"422 732 LINE",
"495 879 LINE",
"763 879 LINE",
"763 977 LINE",
"495 977 LINE",
"422 830 LINE",
"348 977 LINE",
"80 977 LINE",
"80 879 LINE",
"348 879 LINE"
);
}
);
};
guideLines = (
{
angle = 90;
position = "{422, 776}";
}
);
layerId = "CD31F824-B3E8-4361-8C79-B14E59C0EC84";
paths = (
{
closed = 1;
nodes = (
"-464 858 LINE",
"-81 858 LINE",
"-81 949 LINE",
"-98 949 LINE",
"-124 944 LINE",
"-486 944 LINE",
"-566 829 LINE",
"-572 829 LINE",
"-653 944 LINE",
"-1015 944 LINE",
"-1041 949 LINE",
"-1058 949 LINE",
"-1058 858 LINE",
"-675 858 LINE",
"-569 711 LINE"
);
}
);
width = 0;
}
);
script = zanb;
category = Mark;
subCategory = Nonspacing;
},
{
glyphname = o_zanb.wide.ai;
lastChange = "2020-01-25 05:19:36 +0000";
layers = (
{
anchors = (
{
name = _top;
position = "{-569, 811}";
},
{
name = top;
position = "{-569, 994}";
}
);
background = {
paths = (
{
closed = 1;
nodes = (
"422 732 LINE",
"495 879 LINE",
"763 879 LINE",
"763 977 LINE",
"495 977 LINE",
"422 830 LINE",
"348 977 LINE",
"80 977 LINE",
"80 879 LINE",
"348 879 LINE"
);
}
);
};
guideLines = (
{
angle = 90;
position = "{422, 776}";
}
);
layerId = "CD31F824-B3E8-4361-8C79-B14E59C0EC84";
paths = (
{
closed = 1;
nodes = (
"-524 858 LINE",
"-201 858 LINE",
"-201 949 LINE",
"-218 949 LINE",
"-244 944 LINE",
"-546 944 LINE",
"-626 829 LINE",
"-632 829 LINE",
"-713 944 LINE",
"-1015 944 LINE",
"-1041 949 LINE",
"-1058 949 LINE",
"-1058 858 LINE",
"-735 858 LINE",
"-629 711 LINE"
);
}
);
width = 0;
}
);
script = zanb;
category = Mark;
subCategory = Nonspacing;
},
{
glyphname = o_zanb.ai;
lastChange = "2020-01-25 05:19:36 +0000";
layers = (
{
anchors = (
{
name = _top;
position = "{-715, 811}";
},
{
name = top;
position = "{-715, 994}";
}
);
background = {
paths = (
{
closed = 1;
nodes = (
"422 732 LINE",
"495 879 LINE",
"763 879 LINE",
"763 977 LINE",
"495 977 LINE",
"422 830 LINE",
"348 977 LINE",
"80 977 LINE",
"80 879 LINE",
"348 879 LINE"
);
}
);
};
guideLines = (
{
angle = 90;
position = "{422, 776}";
}
);
layerId = "CD31F824-B3E8-4361-8C79-B14E59C0EC84";
paths = (
{
closed = 1;
nodes = (
"-684 858 LINE",
"-488 858 LINE",
"-488 949 LINE",
"-502 949 LINE",
"-523 944 LINE",
"-702 944 LINE",
"-769 829 LINE",
"-773 829 LINE",
"-841 944 LINE",
"-1020 944 LINE",
"-1041 949 LINE",
"-1055 949 LINE",
"-1055 858 LINE",
"-859 858 LINE",
"-771 711 LINE"
);
}
);
width = 0;
}
);
script = zanb;
category = Mark;
subCategory = Nonspacing;
},
{
glyphname = o_zanb.wide.au;
lastChange = "2020-01-25 05:19:36 +0000";
layers = (
{
anchors = (
{
name = _top;
position = "{-569, 811}";
},
{
name = top;
position = "{-569, 994}";
}
);
background = {
paths = (
{
closed = 1;
nodes = (
"422 732 LINE",
"495 879 LINE",
"763 879 LINE",
"763 977 LINE",
"495 977 LINE",
"422 830 LINE",
"348 977 LINE",
"80 977 LINE",
"80 879 LINE",
"348 879 LINE"
);
}
);
};
guideLines = (
{
angle = 90;
position = "{422, 776}";
}
);
layerId = "CD31F824-B3E8-4361-8C79-B14E59C0EC84";
paths = (
{
closed = 1;
nodes = (
"-404 858 LINE",
"-81 858 LINE",
"-81 949 LINE",
"-98 949 LINE",
"-124 944 LINE",
"-426 944 LINE",
"-506 829 LINE",
"-512 829 LINE",
"-593 944 LINE",
"-895 944 LINE",
"-921 949 LINE",
"-938 949 LINE",
"-938 858 LINE",
"-615 858 LINE",
"-509 711 LINE"
);
}
);
width = 0;
}
);
script = zanb;
category = Mark;
subCategory = Nonspacing;
},
{
glyphname = o_zanb.au;
lastChange = "2020-01-25 05:19:36 +0000";
layers = (
{
anchors = (
{
name = _top;
position = "{-483, 811}";
},
{
name = top;
position = "{-483, 994}";
}
);
background = {
paths = (
{
closed = 1;
nodes = (
"422 732 LINE",
"495 879 LINE",
"763 879 LINE",
"763 977 LINE",
"495 977 LINE",
"422 830 LINE",
"348 977 LINE",
"80 977 LINE",
"80 879 LINE",
"348 879 LINE"
);
}
);
};
guideLines = (
{
angle = 90;
position = "{422, 776}";
}
);
layerId = "CD31F824-B3E8-4361-8C79-B14E59C0EC84";
paths = (
{
closed = 1;
nodes = (
"-337 858 LINE",
"-143 858 LINE",
"-143 949 LINE",
"-157 949 LINE",
"-178 944 LINE",
"-355 944 LINE",
"-421 829 LINE",
"-425 829 LINE",
"-492 944 LINE",
"-669 944 LINE",
"-690 949 LINE",
"-704 949 LINE",
"-704 858 LINE",
"-510 858 LINE",
"-423 711 LINE"
);
}
);
width = 0;
}
);
script = zanb;
category = Mark;
subCategory = Nonspacing;
},
{
glyphname = ai_zanb;
lastChange = "2020-01-25 05:19:36 +0000";
layers = (
{
anchors = (
{
name = _topright;
position = "{-58, 713}";
}
);
layerId = "CD31F824-B3E8-4361-8C79-B14E59C0EC84";
paths = (
{
closed = 1;
nodes = (
"-58 651 LINE",
"-58 858 LINE",
"75 858 LINE",
"75 944 LINE",
"-120 944 LINE",
"-120 651 LINE"
);
}
);
width = 0;
}
);
unicode = 11A07;
script = zanb;
category = Mark;
subCategory = Nonspacing;
},
{
glyphname = au_zanb;
lastChange = "2020-01-25 05:19:36 +0000";
layers = (
{
anchors = (
{
name = _topleft;
position = "{-142, 713}";
}
);
layerId = "CD31F824-B3E8-4361-8C79-B14E59C0EC84";
paths = (
{
closed = 1;
nodes = (
"-80 651 LINE",
"-80 944 LINE",
"-276 944 LINE",
"-276 858 LINE",
"-142 858 LINE",
"-142 651 LINE"
);
}
);
width = 0;
}
);
unicode = 11A08;
script = zanb;
category = Mark;
subCategory = Nonspacing;
},
{
glyphname = reversed_i_zanb;
lastChange = "2020-01-25 05:19:36 +0000";
layers = (
{
anchors = (
{
name = _top;
position = "{-413, 798}";
},
{
name = top;
position = "{-381, 1035}";
}
);
background = {
paths = (
{
closed = 1;
nodes = (
"-83 792 LINE",
"-168 856 OFFCURVE",
"-272 891 OFFCURVE",
"-382 891 CURVE SMOOTH",
"-501 891 OFFCURVE",
"-613 849 OFFCURVE",
"-727 732 CURVE",
"-730 732 LINE",
"-670 875 OFFCURVE",
"-550 977 OFFCURVE",
"-386 977 CURVE SMOOTH",
"-230 977 OFFCURVE",
"-131 885 OFFCURVE",
"-80 792 CURVE"
);
}
);
};
layerId = "CD31F824-B3E8-4361-8C79-B14E59C0EC84";
paths = (
{
closed = 1;
nodes = (
"-724 702 LINE",
"-649 766 OFFCURVE",
"-535 827 OFFCURVE",
"-385 831 CURVE SMOOTH",
"-275 834 OFFCURVE",
"-161 806 OFFCURVE",
"-86 752 CURVE",
"-80 752 LINE",
"-131 835 OFFCURVE",
"-249 917 OFFCURVE",
"-384 917 CURVE SMOOTH",
"-549 917 OFFCURVE",
"-679 795 OFFCURVE",
"-730 702 CURVE"
);
}
);
width = 0;
}
);
unicode = 11A09;
script = zanb;
category = Mark;
subCategory = Nonspacing;
},
{
glyphname = reversed_i_zanb.wide;
lastChange = "2020-01-26 07:05:56 +0000";
layers = (
{
anchors = (
{
name = _top;
position = "{-383, 798}";
},
{
name = top;
position = "{-383, 1005}";
}
);
background = {
anchors = (
{
name = _top;
position = "{-383, 798}";
},
{
name = top;
position = "{-383, 1005}";
}
);
paths = (
{
closed = 1;
nodes = (
"-857 702 LINE",
"-749 766 OFFCURVE",
"-545 829 OFFCURVE",
"-338 831 CURVE SMOOTH",
"-139 833 OFFCURVE",
"-15 806 OFFCURVE",
"93 752 CURVE",
"102 752 LINE",
"19 845 OFFCURVE",
"-120 917 OFFCURVE",
"-338 917 CURVE SMOOTH",
"-584 917 OFFCURVE",
"-773 805 OFFCURVE",
"-866 702 CURVE"
);
}
);
};
guideLines = (
{
position = "{838, 732}";
},
{
angle = 180;
position = "{432, 752}";
}
);
layerId = "CD31F824-B3E8-4361-8C79-B14E59C0EC84";
paths = (
{
closed = 1;
nodes = (
"-857 702 LINE",
"-749 766 OFFCURVE",
"-545 829 OFFCURVE",
"-338 831 CURVE SMOOTH",
"-139 833 OFFCURVE",
"-15 806 OFFCURVE",
"93 752 CURVE",
"102 752 LINE",
"19 845 OFFCURVE",
"-120 917 OFFCURVE",
"-338 917 CURVE SMOOTH",
"-584 917 OFFCURVE",
"-773 805 OFFCURVE",
"-866 702 CURVE"
);
}
);
width = 0;
}
);
script = zanb;
category = Mark;
subCategory = Nonspacing;
},
{
glyphname = lengthMark_zanb;
lastChange = "2020-01-25 05:19:36 +0000";
layers = (
{
anchors = (
{
name = _bottom_right;
position = "{-176, 0}";
}
);
background = {
paths = (
{
closed = 1;
nodes = (
"-176 0 LINE",
"-80 -45 OFFCURVE",
"17 -100 OFFCURVE",
"113 -165 CURVE",
"113 -157 LINE",
"39 -39 OFFCURVE",
"32 -30 OFFCURVE",
"-81 90 CURVE"
);
}
);
};
layerId = "CD31F824-B3E8-4361-8C79-B14E59C0EC84";
paths = (
{
closed = 1;
nodes = (
"141 -123 LINE",
"64 -26 OFFCURVE",
"-9 38 OFFCURVE",
"-81 90 CURVE",
"-176 0 LINE",
"-66 -33 OFFCURVE",
"38 -75 OFFCURVE",
"142 -131 CURVE"
);
}
);
width = 0;
}
);
unicode = 11A0A;
script = zanb;
category = Mark;
subCategory = Nonspacing;
},
{
glyphname = finalConsonantMark_zanb;
lastChange = "2020-01-25 05:19:36 +0000";
layers = (
{
anchors = (
{
name = _bottom;
position = "{-283, -100}";
}
);
layerId = "CD31F824-B3E8-4361-8C79-B14E59C0EC84";
paths = (
{
closed = 1;
nodes = (
"-180 -195 LINE",
"-283 -92 LINE",
"-387 -195 LINE",
"-283 -299 LINE"
);
}
);
width = 0;
}
);
unicode = 11A33;
script = zanb;
category = Mark;
subCategory = Nonspacing;
},
{
glyphname = virama_zanb;
lastChange = "2020-01-25 05:19:36 +0000";
layers = (
{
anchors = (
{
name = _bottom;
position = "{-444, -53}";
}
);
background = {
paths = (
{
closed = 1;
nodes = (
"-732 -148 OFFCURVE",
"-647 -90 OFFCURVE",
"-519 -90 CURVE SMOOTH",
"-348 -90 OFFCURVE",
"-179 -188 OFFCURVE",
"-94 -308 CURVE",
"-101 -317 LINE",
"-261 -251 OFFCURVE",
"-355 -214 OFFCURVE",
"-528 -214 CURVE SMOOTH",
"-600 -214 OFFCURVE",
"-651 -223 OFFCURVE",
"-693 -231 CURVE SMOOTH",
"-724 -236 OFFCURVE",
"-732 -223 OFFCURVE",
"-732 -205 CURVE SMOOTH"
);
},
{
closed = 1;
nodes = (
"-720 -132 OFFCURVE",
"-647 -90 OFFCURVE",
"-525 -90 CURVE SMOOTH",
"-348 -90 OFFCURVE",
"-179 -188 OFFCURVE",
"-94 -308 CURVE",
"-101 -317 LINE",
"-261 -230 OFFCURVE",
"-355 -214 OFFCURVE",
"-498 -214 CURVE SMOOTH",
"-600 -214 OFFCURVE",
"-651 -223 OFFCURVE",
"-693 -231 CURVE SMOOTH",
"-724 -236 OFFCURVE",
"-740 -202 OFFCURVE",
"-740 -144 CURVE"
);
},
{
closed = 1;
nodes = (
"-731 -133 OFFCURVE",
"-647 -90 OFFCURVE",
"-525 -90 CURVE SMOOTH",
"-348 -90 OFFCURVE",
"-179 -188 OFFCURVE",
"-94 -308 CURVE",
"-101 -317 LINE",
"-231 -244 OFFCURVE",
"-355 -214 OFFCURVE",
"-488 -214 CURVE SMOOTH",
"-600 -214 OFFCURVE",
"-659 -236 OFFCURVE",
"-693 -251 CURVE",
"-724 -231 OFFCURVE",
"-750 -186 OFFCURVE",
"-740 -159 CURVE SMOOTH"
);
}
);
};
layerId = "CD31F824-B3E8-4361-8C79-B14E59C0EC84";
paths = (
{
closed = 1;
nodes = (
"-94 -308 LINE",
"-179 -188 OFFCURVE",
"-347 -90 OFFCURVE",
"-519 -90 CURVE SMOOTH",
"-646 -90 OFFCURVE",
"-739 -136 OFFCURVE",
"-739 -189 CURVE SMOOTH",
"-739 -215 OFFCURVE",
"-716 -230 OFFCURVE",
"-688 -230 CURVE SMOOTH",
"-649 -230 OFFCURVE",
"-600 -202 OFFCURVE",
"-488 -202 CURVE SMOOTH",
"-355 -202 OFFCURVE",
"-231 -244 OFFCURVE",
"-101 -317 CURVE"
);
}
);
width = 0;
}
);
unicode = 11A34;
script = zanb;
category = Mark;
subCategory = Nonspacing;
},
{
glyphname = candrabindu_zanb;
lastChange = "2020-01-25 05:19:36 +0000";
layers = (
{
anchors = (
{
name = _top;
position = "{-411, 768}";
}
);
background = {
paths = (
{
closed = 1;
nodes = (
"666 830 OFFCURVE",
"763 1025 QCURVE",
"568 928 OFFCURVE",
"422 928 QCURVE SMOOTH",
"275 928 OFFCURVE",
"80 1025 QCURVE",
"177 830 OFFCURVE",
"422 830 QCURVE SMOOTH"
);
},
{
closed = 1;
nodes = (
"472 977 OFFCURVE",
"544 1048 OFFCURVE",
"544 1099 QCURVE SMOOTH",
"544 1149 OFFCURVE",
"472 1221 OFFCURVE",
"422 1221 QCURVE SMOOTH",
"371 1221 OFFCURVE",
"299 1149 OFFCURVE",
"299 1099 QCURVE SMOOTH",
"299 1048 OFFCURVE",
"371 977 OFFCURVE",
"422 977 QCURVE SMOOTH"
);
},
{
closed = 1;
nodes = (
"391 1025 OFFCURVE",
"348 1068 OFFCURVE",
"348 1099 QCURVE SMOOTH",
"348 1129 OFFCURVE",
"391 1172 OFFCURVE",
"422 1172 QCURVE SMOOTH",
"452 1172 OFFCURVE",
"495 1129 OFFCURVE",
"495 1099 QCURVE SMOOTH",
"495 1068 OFFCURVE",
"452 1025 OFFCURVE",
"422 1025 QCURVE SMOOTH"
);
}
);
};
layerId = "CD31F824-B3E8-4361-8C79-B14E59C0EC84";
paths = (
{
closed = 1;
nodes = (
"-258 771 OFFCURVE",
"-122 873 OFFCURVE",
"-73 1016 CURVE",
"-79 1016 LINE",
"-193 899 OFFCURVE",
"-304 857 OFFCURVE",
"-413 857 CURVE SMOOTH",
"-523 857 OFFCURVE",
"-632 898 OFFCURVE",
"-747 1016 CURVE",
"-753 1016 LINE",
"-704 873 OFFCURVE",
"-568 771 OFFCURVE",
"-413 771 CURVE SMOOTH"
);
},
{
closed = 1;
nodes = (
"-340 954 OFFCURVE",
"-282 1012 OFFCURVE",
"-282 1084 CURVE SMOOTH",
"-282 1155 OFFCURVE",
"-340 1213 OFFCURVE",
"-411 1213 CURVE SMOOTH",
"-483 1213 OFFCURVE",
"-541 1155 OFFCURVE",
"-541 1084 CURVE SMOOTH",
"-541 1012 OFFCURVE",
"-483 954 OFFCURVE",
"-411 954 CURVE SMOOTH"
);
},
{
closed = 1;
nodes = (
"-448 1014 OFFCURVE",
"-479 1045 OFFCURVE",
"-479 1084 CURVE SMOOTH",
"-479 1122 OFFCURVE",
"-448 1153 OFFCURVE",
"-409 1153 CURVE SMOOTH",
"-371 1153 OFFCURVE",
"-340 1122 OFFCURVE",
"-340 1084 CURVE SMOOTH",
"-340 1045 OFFCURVE",
"-371 1014 OFFCURVE",
"-409 1014 CURVE SMOOTH"
);
}
);
width = 0;
}
);
unicode = 11A35;
script = zanb;
category = Mark;
subCategory = Nonspacing;
},
{
glyphname = candrabinduWithOrnament_zanb;
lastChange = "2020-01-25 05:19:36 +0000";
layers = (
{
anchors = (
{
name = _top;
position = "{-411, 768}";
}
);
background = {
paths = (
{
closed = 1;
nodes = (
"-517 1465 OFFCURVE",
"-549 1432 OFFCURVE",
"-549 1387 CURVE SMOOTH",
"-549 1336 OFFCURVE",
"-510 1275 OFFCURVE",
"-420 1275 CURVE SMOOTH",
"-344 1275 OFFCURVE",
"-286 1323 OFFCURVE",
"-286 1396 CURVE SMOOTH",
"-286 1459 OFFCURVE",
"-326 1486 OFFCURVE",
"-351 1501 CURVE SMOOTH",
"-409 1536 OFFCURVE",
"-453 1596 OFFCURVE",
"-465 1622 CURVE",
"-470 1619 LINE",
"-469 1603 OFFCURVE",
"-465 1575 OFFCURVE",
"-460 1558 CURVE SMOOTH",
"-447 1514 OFFCURVE",
"-430 1491 OFFCURVE",
"-411 1477 CURVE SMOOTH",
"-376 1451 OFFCURVE",
"-346 1434 OFFCURVE",
"-346 1399 CURVE SMOOTH",
"-346 1364 OFFCURVE",
"-377 1335 OFFCURVE",
"-420 1335 CURVE SMOOTH",
"-471 1335 OFFCURVE",
"-498 1375 OFFCURVE",
"-498 1419 CURVE SMOOTH",
"-498 1442 OFFCURVE",
"-492 1456 OFFCURVE",
"-484 1471 CURVE",
"-490 1478 LINE"
);
}
);
};
layerId = "CD31F824-B3E8-4361-8C79-B14E59C0EC84";
paths = (
{
closed = 1;
nodes = (
"-258 771 OFFCURVE",
"-122 873 OFFCURVE",
"-73 1016 CURVE",
"-79 1016 LINE",
"-193 899 OFFCURVE",
"-304 857 OFFCURVE",
"-413 857 CURVE SMOOTH",
"-523 857 OFFCURVE",
"-632 898 OFFCURVE",
"-747 1016 CURVE",
"-753 1016 LINE",
"-704 873 OFFCURVE",
"-568 771 OFFCURVE",
"-413 771 CURVE SMOOTH"
);
},
{
closed = 1;
nodes = (
"-340 954 OFFCURVE",
"-282 1012 OFFCURVE",
"-282 1084 CURVE SMOOTH",
"-282 1155 OFFCURVE",
"-340 1213 OFFCURVE",
"-411 1213 CURVE SMOOTH",
"-483 1213 OFFCURVE",
"-541 1155 OFFCURVE",
"-541 1084 CURVE SMOOTH",
"-541 1012 OFFCURVE",
"-483 954 OFFCURVE",
"-411 954 CURVE SMOOTH"
);
},
{
closed = 1;
nodes = (
"-448 1014 OFFCURVE",
"-479 1045 OFFCURVE",
"-479 1084 CURVE SMOOTH",
"-479 1122 OFFCURVE",
"-448 1153 OFFCURVE",
"-409 1153 CURVE SMOOTH",
"-371 1153 OFFCURVE",
"-340 1122 OFFCURVE",
"-340 1084 CURVE SMOOTH",
"-340 1045 OFFCURVE",
"-371 1014 OFFCURVE",
"-409 1014 CURVE SMOOTH"
);
},
{
closed = 1;
nodes = (
"-334 1274 OFFCURVE",
"-276 1322 OFFCURVE",
"-276 1395 CURVE SMOOTH",
"-276 1458 OFFCURVE",
"-316 1485 OFFCURVE",
"-341 1500 CURVE SMOOTH",
"-399 1535 OFFCURVE",
"-439 1595 OFFCURVE",
"-455 1621 CURVE",
"-460 1618 LINE",
"-459 1595 OFFCURVE",
"-455 1574 OFFCURVE",
"-450 1556 CURVE SMOOTH",
"-437 1513 OFFCURVE",
"-420 1490 OFFCURVE",
"-401 1476 CURVE SMOOTH",
"-366 1450 OFFCURVE",
"-336 1433 OFFCURVE",
"-336 1398 CURVE SMOOTH",
"-336 1363 OFFCURVE",
"-367 1334 OFFCURVE",
"-411 1334 CURVE SMOOTH",
"-461 1334 OFFCURVE",
"-488 1370 OFFCURVE",
"-488 1416 CURVE SMOOTH",
"-488 1437 OFFCURVE",
"-482 1455 OFFCURVE",
"-474 1470 CURVE",
"-480 1477 LINE",
"-507 1460 OFFCURVE",
"-539 1430 OFFCURVE",
"-539 1385 CURVE SMOOTH",
"-539 1334 OFFCURVE",
"-500 1274 OFFCURVE",
"-411 1274 CURVE SMOOTH"
);
}
);
width = 0;
}
);
unicode = 11A36;
script = zanb;
category = Mark;
subCategory = Nonspacing;
},
{
glyphname = candraWithOrnament_zanb;
lastChange = "2020-01-25 05:19:36 +0000";
layers = (
{
anchors = (
{
name = _top;
position = "{-411, 768}";
}
);
background = {
paths = (
{
closed = 1;
nodes = (
"177 830 OFFCURVE",
"422 830 QCURVE SMOOTH",
"666 830 OFFCURVE",
"763 1025 QCURVE",
"568 928 OFFCURVE",
"422 928 QCURVE SMOOTH",
"275 928 OFFCURVE",
"80 1025 QCURVE"
);
},
{
closed = 1;
nodes = (
"486 1195 OFFCURVE",
"466 1206 QCURVE",
"450 1214 OFFCURVE",
"431 1226 QCURVE",
"412 1243 OFFCURVE",
"397 1267 QCURVE",
"385 1290 OFFCURVE",
"374 1315 QCURVE",
"372 1293 OFFCURVE",
"374 1275 QCURVE",
"374 1233 OFFCURVE",
"410 1197 QCURVE",
"441 1173 OFFCURVE",
"473 1150 QCURVE",
"495 1129 OFFCURVE",
"495 1099 QCURVE SMOOTH",
"495 1068 OFFCURVE",
"452 1025 OFFCURVE",
"422 1025 QCURVE SMOOTH",
"391 1025 OFFCURVE",
"348 1063 OFFCURVE",
"340 1099 QCURVE",
"340 1135 OFFCURVE",
"358 1172 QCURVE",
"307 1141 OFFCURVE",
"302 1101 QCURVE",
"299 1048 OFFCURVE",
"371 977 OFFCURVE",
"422 977 QCURVE SMOOTH",
"472 977 OFFCURVE",
"544 1048 OFFCURVE",
"544 1099 QCURVE",
"548 1151 OFFCURVE",
"508 1181 QCURVE"
);
}
);
};
layerId = "CD31F824-B3E8-4361-8C79-B14E59C0EC84";
paths = (
{
closed = 1;
nodes = (
"-258 771 OFFCURVE",
"-122 873 OFFCURVE",
"-73 1016 CURVE",
"-79 1016 LINE",
"-193 899 OFFCURVE",
"-304 857 OFFCURVE",
"-413 857 CURVE SMOOTH",
"-523 857 OFFCURVE",
"-632 898 OFFCURVE",
"-747 1016 CURVE",
"-753 1016 LINE",
"-704 873 OFFCURVE",
"-568 771 OFFCURVE",
"-413 771 CURVE SMOOTH"
);
},
{
closed = 1;
nodes = (
"-334 954 OFFCURVE",
"-276 1002 OFFCURVE",
"-276 1075 CURVE SMOOTH",
"-276 1138 OFFCURVE",
"-316 1165 OFFCURVE",
"-341 1180 CURVE SMOOTH",
"-399 1215 OFFCURVE",
"-439 1275 OFFCURVE",
"-455 1301 CURVE",
"-460 1298 LINE",
"-459 1275 OFFCURVE",
"-455 1254 OFFCURVE",
"-450 1236 CURVE SMOOTH",
"-437 1193 OFFCURVE",
"-420 1170 OFFCURVE",
"-401 1156 CURVE SMOOTH",
"-366 1130 OFFCURVE",
"-336 1113 OFFCURVE",
"-336 1078 CURVE SMOOTH",
"-336 1043 OFFCURVE",
"-367 1014 OFFCURVE",
"-411 1014 CURVE SMOOTH",
"-461 1014 OFFCURVE",
"-488 1050 OFFCURVE",
"-488 1096 CURVE SMOOTH",
"-488 1117 OFFCURVE",
"-482 1135 OFFCURVE",
"-474 1150 CURVE",
"-480 1157 LINE",
"-507 1140 OFFCURVE",
"-539 1110 OFFCURVE",
"-539 1065 CURVE SMOOTH",
"-539 1014 OFFCURVE",
"-500 954 OFFCURVE",
"-411 954 CURVE SMOOTH"
);
}
);
width = 0;
}
);
unicode = 11A37;
script = zanb;
category = Mark;
subCategory = Nonspacing;
},
{
glyphname = anusvara_zanb;
lastChange = "2020-01-25 05:19:36 +0000";
layers = (
{
anchors = (
{
name = _top;
position = "{-238, 822}";
}
);
background = {
paths = (
{
closed = 1;
nodes = (
"253 830 OFFCURVE",
"325 901 OFFCURVE",
"325 952 QCURVE SMOOTH",
"325 1003 OFFCURVE",
"253 1074 OFFCURVE",
"203 1074 QCURVE SMOOTH",
"152 1074 OFFCURVE",
"80 1003 OFFCURVE",
"80 952 QCURVE SMOOTH",
"80 901 OFFCURVE",
"152 830 OFFCURVE",
"203 830 QCURVE SMOOTH"
);
},
{
closed = 1;
nodes = (
"172 879 OFFCURVE",
"129 922 OFFCURVE",
"129 952 QCURVE SMOOTH",
"129 982 OFFCURVE",
"172 1025 OFFCURVE",
"203 1025 QCURVE SMOOTH",
"233 1025 OFFCURVE",
"276 982 OFFCURVE",
"276 952 QCURVE SMOOTH",
"276 922 OFFCURVE",
"233 879 OFFCURVE",
"203 879 QCURVE SMOOTH"
);
}
);
};
layerId = "CD31F824-B3E8-4361-8C79-B14E59C0EC84";
paths = (
{
closed = 1;
nodes = (
"-170 828 OFFCURVE",
"-115 883 OFFCURVE",
"-115 952 CURVE SMOOTH",
"-115 1020 OFFCURVE",
"-170 1075 OFFCURVE",
"-238 1075 CURVE SMOOTH",
"-307 1075 OFFCURVE",
"-362 1020 OFFCURVE",
"-362 952 CURVE SMOOTH",
"-362 883 OFFCURVE",
"-307 828 OFFCURVE",
"-238 828 CURVE SMOOTH"
);
},
{
closed = 1;
nodes = (
"-272 892 OFFCURVE",
"-298 918 OFFCURVE",
"-298 952 CURVE SMOOTH",
"-298 985 OFFCURVE",
"-272 1011 OFFCURVE",
"-238 1011 CURVE SMOOTH",
"-205 1011 OFFCURVE",
"-179 985 OFFCURVE",
"-179 952 CURVE SMOOTH",
"-179 918 OFFCURVE",
"-205 892 OFFCURVE",
"-238 892 CURVE SMOOTH"
);
}
);
width = 0;
}
);
unicode = 11A38;
script = zanb;
category = Mark;
subCategory = Nonspacing;
},
{
glyphname = visarga_zanb;
lastChange = "2020-01-25 05:19:36 +0000";
layers = (
{
background = {
paths = (
{
closed = 1;
nodes = (
"270 395 OFFCURVE",
"325 450 OFFCURVE",
"325 519 CURVE SMOOTH",
"325 587 OFFCURVE",
"270 642 OFFCURVE",
"202 642 CURVE SMOOTH",
"133 642 OFFCURVE",
"78 587 OFFCURVE",
"78 519 CURVE SMOOTH",
"78 450 OFFCURVE",
"133 395 OFFCURVE",
"202 395 CURVE SMOOTH"
);
},
{
closed = 1;
nodes = (
"168 459 OFFCURVE",
"142 485 OFFCURVE",
"142 519 CURVE SMOOTH",
"142 552 OFFCURVE",
"168 578 OFFCURVE",
"202 578 CURVE SMOOTH",
"235 578 OFFCURVE",
"261 552 OFFCURVE",
"261 519 CURVE SMOOTH",
"261 485 OFFCURVE",
"235 459 OFFCURVE",
"202 459 CURVE SMOOTH"
);
},
{
closed = 1;
nodes = (
"270 55 OFFCURVE",
"325 110 OFFCURVE",
"325 179 CURVE SMOOTH",
"325 247 OFFCURVE",
"270 302 OFFCURVE",
"202 302 CURVE SMOOTH",
"133 302 OFFCURVE",
"78 247 OFFCURVE",
"78 179 CURVE SMOOTH",
"78 110 OFFCURVE",
"133 55 OFFCURVE",
"202 55 CURVE SMOOTH"
);
},
{
closed = 1;
nodes = (
"168 119 OFFCURVE",
"142 145 OFFCURVE",
"142 179 CURVE SMOOTH",
"142 212 OFFCURVE",
"168 238 OFFCURVE",
"202 238 CURVE SMOOTH",
"235 238 OFFCURVE",
"261 212 OFFCURVE",
"261 179 CURVE SMOOTH",
"261 145 OFFCURVE",
"235 119 OFFCURVE",
"202 119 CURVE SMOOTH"
);
}
);
};
layerId = "CD31F824-B3E8-4361-8C79-B14E59C0EC84";
paths = (
{
closed = 1;
nodes = (
"270 385 OFFCURVE",
"325 440 OFFCURVE",
"325 509 CURVE SMOOTH",
"325 577 OFFCURVE",
"270 632 OFFCURVE",
"202 632 CURVE SMOOTH",
"133 632 OFFCURVE",
"78 577 OFFCURVE",
"78 509 CURVE SMOOTH",
"78 440 OFFCURVE",
"133 385 OFFCURVE",
"202 385 CURVE SMOOTH"
);
},
{
closed = 1;
nodes = (
"270 45 OFFCURVE",
"325 100 OFFCURVE",
"325 169 CURVE SMOOTH",
"325 237 OFFCURVE",
"270 292 OFFCURVE",
"202 292 CURVE SMOOTH",
"133 292 OFFCURVE",
"78 237 OFFCURVE",
"78 169 CURVE SMOOTH",
"78 100 OFFCURVE",
"133 45 OFFCURVE",
"202 45 CURVE SMOOTH"
);
},
{
closed = 1;
nodes = (
"168 109 OFFCURVE",
"142 135 OFFCURVE",
"142 169 CURVE SMOOTH",
"142 202 OFFCURVE",
"168 228 OFFCURVE",
"202 228 CURVE SMOOTH",
"235 228 OFFCURVE",
"261 202 OFFCURVE",
"261 169 CURVE SMOOTH",
"261 135 OFFCURVE",
"235 109 OFFCURVE",
"202 109 CURVE SMOOTH"
);
},
{
closed = 1;
nodes = (
"168 449 OFFCURVE",
"142 475 OFFCURVE",
"142 509 CURVE SMOOTH",
"142 542 OFFCURVE",
"168 568 OFFCURVE",
"202 568 CURVE SMOOTH",
"235 568 OFFCURVE",
"261 542 OFFCURVE",
"261 509 CURVE SMOOTH",
"261 475 OFFCURVE",
"235 449 OFFCURVE",
"202 449 CURVE SMOOTH"
);
}
);
width = 403;
}
);
unicode = 11A39;
script = zanb;
category = Letter;
},
{
glyphname = finalYa_zanb;
lastChange = "2020-01-25 05:19:36 +0000";
layers = (
{
anchors = (
{
name = _bottom;
position = "{-420, -80}";
}
);
background = {
paths = (
{
closed = 1;
nodes = (
"-112 -111 OFFCURVE",
"-195 -192 OFFCURVE",
"-264 -192 CURVE SMOOTH",
"-340 -192 OFFCURVE",
"-399 -100 OFFCURVE",
"-419 -56 CURVE",
"-436 -56 LINE",
"-462 -110 OFFCURVE",
"-513 -189 OFFCURVE",
"-595 -189 CURVE SMOOTH",
"-676 -189 OFFCURVE",
"-723 -112 OFFCURVE",
"-745 -45 CURVE",
"-760 -45 LINE",
"-753 -144 OFFCURVE",
"-715 -291 OFFCURVE",
"-593 -291 CURVE SMOOTH",
"-503 -291 OFFCURVE",
"-446 -206 OFFCURVE",
"-431 -148 CURVE",
"-425 -148 LINE",
"-410 -206 OFFCURVE",
"-352 -293 OFFCURVE",
"-262 -293 CURVE SMOOTH",
"-142 -293 OFFCURVE",
"-88 -144 OFFCURVE",
"-80 -45 CURVE",
"-96 -45 LINE"
);
}
);
};
guideLines = (
{
position = "{427, -56}";
},
{
position = "{-419, -56}";
}
);
layerId = "CD31F824-B3E8-4361-8C79-B14E59C0EC84";
paths = (
{
closed = 1;
nodes = (
"-503 -291 OFFCURVE",
"-437 -216 OFFCURVE",
"-422 -148 CURVE",
"-416 -148 LINE",
"-401 -216 OFFCURVE",
"-337 -291 OFFCURVE",
"-247 -291 CURVE SMOOTH",
"-125 -291 OFFCURVE",
"-77 -154 OFFCURVE",
"-80 -45 CURVE",
"-95 -45 LINE",
"-116 -112 OFFCURVE",
"-164 -189 OFFCURVE",
"-243 -189 CURVE SMOOTH",
"-327 -189 OFFCURVE",
"-387 -100 OFFCURVE",
"-411 -56 CURVE",
"-428 -56 LINE",
"-448 -100 OFFCURVE",
"-513 -189 OFFCURVE",
"-597 -189 CURVE SMOOTH",
"-676 -189 OFFCURVE",
"-723 -112 OFFCURVE",
"-744 -45 CURVE",
"-760 -45 LINE",
"-763 -154 OFFCURVE",
"-715 -291 OFFCURVE",
"-593 -291 CURVE SMOOTH"
);
}
);
width = 0;
}
);
unicode = 11A3B;
script = zanb;
category = Mark;
subCategory = Nonspacing;
},
{
glyphname = finalRa_zanb;
lastChange = "2020-01-25 05:19:36 +0000";
layers = (
{
anchors = (
{
name = _bottom;
position = "{-420, -100}";
}
);
background = {
paths = (
{
closed = 1;
nodes = (
"275.333 -227.667 OFFCURVE",
"470.667 -227.667 OFFCURVE",
"666 -293 CURVE",
"763 -293 LINE",
"763 0 LINE",
"666 0 LINE",
"666 -195 LINE",
"470.667 -130.333 OFFCURVE",
"275.333 -130.333 OFFCURVE",
"80 -195 CURVE",
"80 -293 LINE"
);
}
);
};
layerId = "CD31F824-B3E8-4361-8C79-B14E59C0EC84";
paths = (
{
closed = 1;
nodes = (
"-649 -234 OFFCURVE",
"-538 -221 OFFCURVE",
"-427 -220 CURVE SMOOTH",
"-312 -219 OFFCURVE",
"-196 -232 OFFCURVE",
"-80 -259 CURVE",
"-80 0 LINE",
"-176 0 LINE",
"-176 -165 LINE",
"-178 -166 LINE",
"-269 -151 OFFCURVE",
"-361 -144 OFFCURVE",
"-453 -145 CURVE SMOOTH",
"-555 -146 OFFCURVE",
"-657 -158 OFFCURVE",
"-760 -183 CURVE",
"-760 -259 LINE"
);
}
);
width = 0;
}
);
unicode = 11A3C;
script = zanb;
category = Mark;
subCategory = Nonspacing;
},
{
glyphname = finalLa_zanb;
lastChange = "2020-01-25 05:19:36 +0000";
layers = (
{
anchors = (
{
name = _bottom;
position = "{-420, -100}";
}
);
background = {
paths = (
{
closed = 1;
nodes = (
"-663 -293 LINE",
"-663 -163 OFFCURVE",
"-573 -164 OFFCURVE",
"-370 -196 CURVE SMOOTH",
"-205 -222 OFFCURVE",
"-80 -195 OFFCURVE",
"-80 0 CURVE",
"-177 0 LINE",
"-177 -130 OFFCURVE",
"-302 -124 OFFCURVE",
"-467 -98 CURVE SMOOTH",
"-670 -66 OFFCURVE",
"-760 -98 OFFCURVE",
"-760 -293 CURVE"
);
}
);
};
layerId = "CD31F824-B3E8-4361-8C79-B14E59C0EC84";
paths = (
{
closed = 1;
nodes = (
"-663 -313 LINE",
"-663 -304 LINE SMOOTH",
"-663 -241 OFFCURVE",
"-612 -171 OFFCURVE",
"-513 -171 CURVE SMOOTH",
"-425 -171 OFFCURVE",
"-394 -226 OFFCURVE",
"-279 -226 CURVE SMOOTH",
"-181 -226 OFFCURVE",
"-80 -185 OFFCURVE",
"-80 -27 CURVE SMOOTH",
"-80 1 LINE",
"-177 1 LINE",
"-177 -29 LINE SMOOTH",
"-177 -91 OFFCURVE",
"-210 -146 OFFCURVE",
"-283 -146 CURVE SMOOTH",
"-359 -146 OFFCURVE",
"-405 -92 OFFCURVE",
"-516 -92 CURVE SMOOTH",
"-675 -92 OFFCURVE",
"-760 -206 OFFCURVE",
"-760 -307 CURVE SMOOTH",
"-760 -313 LINE"
);
}
);
width = 0;
}
);
unicode = 11A3D;
script = zanb;
category = Mark;
subCategory = Nonspacing;
},
{
glyphname = finalVa_zanb;
lastChange = "2020-01-25 05:19:36 +0000";
layers = (
{
anchors = (
{
name = _bottom_right;
position = "{-177, 3}";
}
);
background = {
paths = (
{
closed = 1;
nodes = (
"-373 -146 LINE",
"-177 -81 LINE",
"-177 -211 LINE"
);
},
{
closed = 1;
nodes = (
"-617 -146 LINE",
"-81 -325 LINE",
"-81 33 LINE"
);
}
);
};
guideLines = (
{
angle = 18.4349;
position = "{-303, -123}";
},
{
angle = -18.4349;
position = "{-315, -165}";
}
);
layerId = "CD31F824-B3E8-4361-8C79-B14E59C0EC84";
paths = (
{
closed = 1;
nodes = (
"-80 -7 LINE",
"-616 -186 LINE",
"-80 -365 LINE"
);
},
{
closed = 1;
nodes = (
"-372 -186 LINE",
"-176 -121 LINE",
"-176 -251 LINE"
);
}
);
width = 0;
}
);
unicode = 11A3E;
script = zanb;
category = Mark;
subCategory = Nonspacing;
},
{
glyphname = subjoiner_zanb;
lastChange = "2020-01-25 05:19:36 +0000";
layers = (
{
anchors = (
{
name = _bottom;
position = "{-420, -123}";
}
);
background = {
paths = (
{
closed = 1;
nodes = (
"80 789 LINE",
"180 789 LINE",
"180 839 LINE",
"80 839 LINE"
);
},
{
closed = 1;
nodes = (
"280 789 LINE",
"360 789 LINE",
"360 839 LINE",
"280 839 LINE"
);
},
{
closed = 1;
nodes = (
"480 789 LINE",
"560 789 LINE",
"560 839 LINE",
"480 839 LINE"
);
},
{
closed = 1;
nodes = (
"680 789 LINE",
"760 789 LINE",
"760 839 LINE",
"680 839 LINE"
);
},
{
closed = 1;
nodes = (
"860 789 LINE",
"960 789 LINE",
"960 839 LINE",
"860 839 LINE"
);
},
{
closed = 1;
nodes = (
"80 -161 LINE",
"180 -161 LINE",
"180 -111 LINE",
"80 -111 LINE"
);
},
{
closed = 1;
nodes = (
"280 -161 LINE",
"360 -161 LINE",
"360 -111 LINE",
"280 -111 LINE"
);
},
{
closed = 1;
nodes = (
"480 -161 LINE",
"560 -161 LINE",
"560 -111 LINE",
"480 -111 LINE"
);
},
{
closed = 1;
nodes = (
"680 -161 LINE",
"760 -161 LINE",
"760 -111 LINE",
"680 -111 LINE"
);
},
{
closed = 1;
nodes = (
"860 -161 LINE",
"960 -161 LINE",
"960 -111 LINE",
"860 -111 LINE"
);
},
{
closed = 1;
nodes = (
"333 447 OFFCURVE",
"344 458 OFFCURVE",
"344 471 CURVE SMOOTH",
"344 484 OFFCURVE",
"333 495 OFFCURVE",
"320 495 CURVE SMOOTH",
"307 495 OFFCURVE",
"296 484 OFFCURVE",
"296 471 CURVE SMOOTH",
"296 458 OFFCURVE",
"307 447 OFFCURVE",
"320 447 CURVE SMOOTH"
);
},
{
closed = 1;
nodes = (
"359 548 OFFCURVE",
"370 559 OFFCURVE",
"370 572 CURVE SMOOTH",
"370 585 OFFCURVE",
"359 596 OFFCURVE",
"346 596 CURVE SMOOTH",
"333 596 OFFCURVE",
"322 585 OFFCURVE",
"322 572 CURVE SMOOTH",
"322 559 OFFCURVE",
"333 548 OFFCURVE",
"346 548 CURVE SMOOTH"
);
},
{
closed = 1;
nodes = (
"430 618 OFFCURVE",
"441 629 OFFCURVE",
"441 642 CURVE SMOOTH",
"441 655 OFFCURVE",
"430 666 OFFCURVE",
"417 666 CURVE SMOOTH",
"404 666 OFFCURVE",
"393 655 OFFCURVE",
"393 642 CURVE SMOOTH",
"393 629 OFFCURVE",
"404 618 OFFCURVE",
"417 618 CURVE SMOOTH"
);
},
{
closed = 1;
nodes = (
"527 642 OFFCURVE",
"538 653 OFFCURVE",
"538 666 CURVE SMOOTH",
"538 679 OFFCURVE",
"527 690 OFFCURVE",
"514 690 CURVE SMOOTH",
"501 690 OFFCURVE",
"490 679 OFFCURVE",
"490 666 CURVE SMOOTH",
"490 653 OFFCURVE",
"501 642 OFFCURVE",
"514 642 CURVE SMOOTH"
);
},
{
closed = 1;
nodes = (
"624 618 OFFCURVE",
"635 629 OFFCURVE",
"635 642 CURVE SMOOTH",
"635 655 OFFCURVE",
"624 666 OFFCURVE",
"611 666 CURVE SMOOTH",
"598 666 OFFCURVE",
"587 655 OFFCURVE",
"587 642 CURVE SMOOTH",
"587 629 OFFCURVE",
"598 618 OFFCURVE",
"611 618 CURVE SMOOTH"
);
},
{
closed = 1;
nodes = (
"694 546 OFFCURVE",
"705 557 OFFCURVE",
"705 570 CURVE SMOOTH",
"705 583 OFFCURVE",
"694 594 OFFCURVE",
"681 594 CURVE SMOOTH",
"668 594 OFFCURVE",
"657 583 OFFCURVE",
"657 570 CURVE SMOOTH",
"657 557 OFFCURVE",
"668 546 OFFCURVE",
"681 546 CURVE SMOOTH"
);
},
{
closed = 1;
nodes = (
"724 447 OFFCURVE",
"735 458 OFFCURVE",
"735 471 CURVE SMOOTH",
"735 484 OFFCURVE",
"724 495 OFFCURVE",
"711 495 CURVE SMOOTH",
"698 495 OFFCURVE",
"687 484 OFFCURVE",
"687 471 CURVE SMOOTH",
"687 458 OFFCURVE",
"698 447 OFFCURVE",
"711 447 CURVE SMOOTH"
);
},
{
closed = 1;
nodes = (
"696 353 OFFCURVE",
"707 364 OFFCURVE",
"707 377 CURVE SMOOTH",
"707 390 OFFCURVE",
"696 401 OFFCURVE",
"683 401 CURVE SMOOTH",
"670 401 OFFCURVE",
"659 390 OFFCURVE",
"659 377 CURVE SMOOTH",
"659 364 OFFCURVE",
"670 353 OFFCURVE",
"683 353 CURVE SMOOTH"
);
},
{
closed = 1;
nodes = (
"625 281 OFFCURVE",
"636 292 OFFCURVE",
"636 305 CURVE SMOOTH",
"636 318 OFFCURVE",
"625 329 OFFCURVE",
"612 329 CURVE SMOOTH",
"599 329 OFFCURVE",
"588 318 OFFCURVE",
"588 305 CURVE SMOOTH",
"588 292 OFFCURVE",
"599 281 OFFCURVE",
"612 281 CURVE SMOOTH"
);
},
{
closed = 1;
nodes = (
"527 253 OFFCURVE",
"538 264 OFFCURVE",
"538 277 CURVE SMOOTH",
"538 290 OFFCURVE",
"527 301 OFFCURVE",
"514 301 CURVE SMOOTH",
"501 301 OFFCURVE",
"490 290 OFFCURVE",
"490 277 CURVE SMOOTH",
"490 264 OFFCURVE",
"501 253 OFFCURVE",
"514 253 CURVE SMOOTH"
);
},
{
closed = 1;
nodes = (
"430 280 OFFCURVE",
"441 291 OFFCURVE",
"441 304 CURVE SMOOTH",
"441 317 OFFCURVE",
"430 328 OFFCURVE",
"417 328 CURVE SMOOTH",
"404 328 OFFCURVE",
"393 317 OFFCURVE",
"393 304 CURVE SMOOTH",
"393 291 OFFCURVE",
"404 280 OFFCURVE",
"417 280 CURVE SMOOTH"
);
},
{
closed = 1;
nodes = (
"357 352 OFFCURVE",
"368 363 OFFCURVE",
"368 376 CURVE SMOOTH",
"368 389 OFFCURVE",
"357 400 OFFCURVE",
"344 400 CURVE SMOOTH",
"331 400 OFFCURVE",
"320 389 OFFCURVE",
"320 376 CURVE SMOOTH",
"320 363 OFFCURVE",
"331 352 OFFCURVE",
"344 352 CURVE SMOOTH"
);
},
{
closed = 1;
nodes = (
"130 -111 LINE",
"130 -21 LINE",
"80 -21 LINE",
"80 -111 LINE"
);
},
{
closed = 1;
nodes = (
"130 99 LINE",
"130 179 LINE",
"80 179 LINE",
"80 99 LINE"
);
},
{
closed = 1;
nodes = (
"130 299 LINE",
"130 379 LINE",
"80 379 LINE",
"80 299 LINE"
);
},
{
closed = 1;
nodes = (
"130 499 LINE",
"130 579 LINE",
"80 579 LINE",
"80 499 LINE"
);
},
{
closed = 1;
nodes = (
"130 699 LINE",
"130 789 LINE",
"80 789 LINE",
"80 699 LINE"
);
},
{
closed = 1;
nodes = (
"960 -111 LINE",
"960 -21 LINE",
"910 -21 LINE",
"910 -111 LINE"
);
},
{
closed = 1;
nodes = (
"960 99 LINE",
"960 179 LINE",
"910 179 LINE",
"910 99 LINE"
);
},
{
closed = 1;
nodes = (
"960 299 LINE",
"960 379 LINE",
"910 379 LINE",
"910 299 LINE"
);
},
{
closed = 1;
nodes = (
"960 499 LINE",
"960 579 LINE",
"910 579 LINE",
"910 499 LINE"
);
},
{
closed = 1;
nodes = (
"960 699 LINE",
"960 789 LINE",
"910 789 LINE",
"910 699 LINE"
);
},
{
closed = 1;
nodes = (
"484 -40 LINE",
"544 -40 LINE",
"544 197 LINE",
"484 197 LINE"
);
},
{
closed = 1;
nodes = (
"633 49 LINE",
"633 109 LINE",
"396 109 LINE",
"396 49 LINE"
);
}
);
};
layerId = "CD31F824-B3E8-4361-8C79-B14E59C0EC84";
paths = (
{
closed = 1;
nodes = (
"-301 -271 LINE",
"-301 -211 LINE",
"-538 -211 LINE",
"-538 -271 LINE"
);
},
{
closed = 1;
nodes = (
"-390 -360 LINE",
"-390 -123 LINE",
"-450 -123 LINE",
"-450 -360 LINE"
);
}
);
width = 0;
}
);
unicode = 11A47;
script = zanb;
category = Mark;
subCategory = Nonspacing;
},
{
glyphname = finalVa_zanb.stem;
lastChange = "2020-01-25 05:19:36 +0000";
layers = (
{
anchors = (
{
name = _bottom_right;
position = "{-176, 0}";
}
);
guideLines = (
{
angle = 18.4349;
position = "{-303, -123}";
},
{
angle = -18.4349;
position = "{-315, -165}";
}
);
layerId = "CD31F824-B3E8-4361-8C79-B14E59C0EC84";
paths = (
{
closed = 1;
nodes = (
"-80 -7 LINE",
"-616 -186 LINE",
"-80 -365 LINE"
);
},
{
closed = 1;
nodes = (
"-372 -186 LINE",
"-176 -121 LINE",
"-176 -251 LINE"
);
},
{
closed = 1;
nodes = (
"-80 -65 LINE",
"-80 24 LINE",
"-176 24 LINE",
"-176 -65 LINE"
);
}
);
width = 0;
}
);
script = zanb;
category = Mark;
subCategory = Nonspacing;
},
{
glyphname = a_zanb;
lastChange = "2020-01-25 05:19:36 +0000";
layers = (
{
anchors = (
{
name = bottom;
position = "{716, -86}";
},
{
name = bottom_right;
position = "{960, 0}";
},
{
name = top;
position = "{568, 778}";
},
{
name = topleft;
position = "{80, 678}";
},
{
name = topright;
position = "{1056, 678}";
}
);
background = {
paths = (
{
closed = 1;
nodes = (
"80 0 LINE",
"470 0 LINE",
"470 635 LINE",
"666 635 LINE",
"666 0 LINE",
"1056 0 LINE",
"1056 732 LINE",
"959 732 LINE",
"959 98 LINE",
"763 98 LINE",
"763 732 LINE",
"373 732 LINE",
"373 98 LINE",
"177 98 LINE",
"177 732 LINE",
"80 732 LINE"
);
}
);
};
layerId = "CD31F824-B3E8-4361-8C79-B14E59C0EC84";
paths = (
{
closed = 1;
nodes = (
"470 0 LINE",
"470 592 LINE",
"666 592 LINE",
"666 0 LINE",
"1056 0 LINE",
"1056 678 LINE",
"960 678 LINE",
"960 86 LINE",
"762 86 LINE",
"762 678 LINE",
"374 678 LINE",
"374 86 LINE",
"176 86 LINE",
"176 678 LINE",
"80 678 LINE",
"80 0 LINE"
);
}
);
width = 1136;
}
);
unicode = 11A00;
},
{
glyphname = ka_zanb;
lastChange = "2020-01-25 05:19:36 +0000";
layers = (
{
anchors = (
{
name = bottom;
position = "{420, -86}";
},
{
name = bottom_right;
position = "{664, 0}";
},
{
name = top;
position = "{420, 778}";
},
{
name = topleft;
position = "{80, 678}";
},
{
name = topright;
position = "{760, 678}";
}
);
layerId = "CD31F824-B3E8-4361-8C79-B14E59C0EC84";
paths = (
{
closed = 1;
nodes = (
"468 0 LINE",
"468 592 LINE",
"664 592 LINE",
"664 0 LINE",
"760 0 LINE",
"760 678 LINE",
"80 678 LINE",
"80 592 LINE",
"372 592 LINE",
"372 86 LINE",
"176 86 LINE",
"176 391 LINE",
"80 391 LINE",
"80 0 LINE"
);
}
);
width = 840;
}
);
unicode = 11A0B;
script = zanb;
category = Letter;
subCategory = Other;
},
{
glyphname = kha_zanb;
lastChange = "2020-01-25 05:19:36 +0000";
layers = (
{
anchors = (
{
name = bottom;
position = "{420, -86}";
},
{
name = bottom_right;
position = "{664, 0}";
},
{
name = top;
position = "{420, 778}";
},
{
name = topleft;
position = "{80, 678}";
},
{
name = topright;
position = "{760, 678}";
}
);
background = {
paths = (
{
closed = 1;
nodes = (
"665 98 LINE",
"469 98 LINE",
"469 635 LINE",
"665 635 LINE"
);
},
{
closed = 1;
nodes = (
"79 732 LINE",
"79 0 LINE",
"176 0 LINE",
"176 635 LINE",
"372 635 LINE",
"372 0 LINE",
"762 0 LINE",
"762 732 LINE"
);
}
);
};
layerId = "CD31F824-B3E8-4361-8C79-B14E59C0EC84";
paths = (
{
closed = 1;
nodes = (
"176 0 LINE",
"176 592 LINE",
"372 592 LINE",
"372 0 LINE",
"760 0 LINE",
"760 678 LINE",
"80 678 LINE",
"80 0 LINE"
);
},
{
closed = 1;
nodes = (
"468 592 LINE",
"664 592 LINE",
"664 86 LINE",
"468 86 LINE"
);
}
);
width = 840;
}
);
unicode = 11A0C;
},
{
glyphname = ga_zanb;
lastChange = "2020-01-25 05:19:36 +0000";
layers = (
{
anchors = (
{
name = bottom;
position = "{420, -86}";
},
{
name = bottom_right;
position = "{664, 0}";
},
{
name = top;
position = "{420, 778}";
},
{
name = topleft;
position = "{80, 678}";
},
{
name = topright;
position = "{760, 678}";
}
);
layerId = "CD31F824-B3E8-4361-8C79-B14E59C0EC84";
paths = (
{
closed = 1;
nodes = (
"468 0 LINE",
"468 592 LINE",
"664 592 LINE",
"664 0 LINE",
"760 0 LINE",
"760 678 LINE",
"80 678 LINE",
"80 0 LINE"
);
},
{
closed = 1;
nodes = (
"176 592 LINE",
"372 592 LINE",
"372 86 LINE",
"176 86 LINE"
);
}
);
width = 840;
}
);
unicode = 11A0D;
},
{
glyphname = gha_zanb;
lastChange = "2020-01-25 05:19:36 +0000";
layers = (
{
anchors = (
{
name = bottom;
position = "{420, -86}";
},
{
name = bottom_right;
position = "{664, 0}";
},
{
name = top;
position = "{420, 778}";
},
{
name = topleft;
position = "{80, 678}";
},
{
name = topright;
position = "{760, 678}";
}
);
layerId = "CD31F824-B3E8-4361-8C79-B14E59C0EC84";
paths = (
{
closed = 1;
nodes = (
"468 0 LINE",
"468 592 LINE",
"664 592 LINE",
"664 0 LINE",
"760 0 LINE",
"760 678 LINE",
"80 678 LINE",
"80 592 LINE",
"372 592 LINE",
"372 386 LINE",
"80 386 LINE",
"80 0 LINE"
);
},
{
closed = 1;
nodes = (
"176 300 LINE",
"372 300 LINE",
"372 86 LINE",
"176 86 LINE"
);
}
);
width = 840;
}
);
unicode = 11A0E;
},
{
glyphname = nga_zanb;
lastChange = "2020-01-25 05:19:36 +0000";
layers = (
{
anchors = (
{
name = bottom;
position = "{420, -86}";
},
{
name = bottom_right;
position = "{664, 0}";
},
{
name = top;
position = "{420, 778}";
},
{
name = topleft;
position = "{80, 678}";
},
{
name = topright;
position = "{760, 678}";
}
);
layerId = "CD31F824-B3E8-4361-8C79-B14E59C0EC84";
paths = (
{
closed = 1;
nodes = (
"760 0 LINE",
"760 86 LINE",
"176 86 LINE",
"176 300 LINE",
"759 300 LINE",
"759 678 LINE",
"80 678 LINE",
"80 592 LINE",
"663 592 LINE",
"663 386 LINE",
"80 386 LINE",
"80 0 LINE"
);
}
);
width = 840;
}
);
unicode = 11A0F;
},
{
glyphname = ca_zanb;
lastChange = "2020-01-25 05:19:36 +0000";
layers = (
{
anchors = (
{
name = bottom;
position = "{420, -86}";
},
{
name = bottom_right;
position = "{664, 0}";
},
{
name = top;
position = "{420, 778}";
},
{
name = topleft;
position = "{80, 678}";
},
{
name = topright;
position = "{760, 678}";
}
);
layerId = "CD31F824-B3E8-4361-8C79-B14E59C0EC84";
paths = (
{
closed = 1;
nodes = (
"760 0 LINE",
"760 678 LINE",
"80 678 LINE",
"80 592 LINE",
"372 592 LINE",
"372 86 LINE",
"80 86 LINE",
"80 0 LINE"
);
},
{
closed = 1;
nodes = (
"468 592 LINE",
"664 592 LINE",
"664 86 LINE",
"468 86 LINE"
);
}
);
width = 840;
}
);
unicode = 11A10;
},
{
glyphname = cha_zanb;
lastChange = "2020-01-25 05:19:36 +0000";
layers = (
{
anchors = (
{
name = bottom;
position = "{420, -86}";
},
{
name = bottom_right;
position = "{664, 0}";
},
{
name = top;
position = "{420, 778}";
},
{
name = topleft;
position = "{80, 678}";
},
{
name = topright;
position = "{760, 678}";
}
);
background = {
paths = (
{
closed = 1;
nodes = (
"80 678 LINE",
"80 592 LINE",
"363 592 LINE",
"363 86 LINE",
"80 86 LINE",
"80 0 LINE",
"751 0 LINE",
"751 678 LINE"
);
},
{
closed = 1;
nodes = (
"459 592 LINE",
"655 592 LINE",
"655 86 LINE",
"459 86 LINE"
);
}
);
};
layerId = "CD31F824-B3E8-4361-8C79-B14E59C0EC84";
paths = (
{
closed = 1;
nodes = (
"760 0 LINE",
"760 678 LINE",
"80 678 LINE",
"80 0 LINE"
);
},
{
closed = 1;
nodes = (
"176 592 LINE",
"372 592 LINE",
"372 86 LINE",
"176 86 LINE"
);
},
{
closed = 1;
nodes = (
"468 592 LINE",
"664 592 LINE",
"664 86 LINE",
"468 86 LINE"
);
}
);
width = 840;
}
);
unicode = 11A11;
},
{
glyphname = ja_zanb;
lastChange = "2020-01-25 05:19:36 +0000";
layers = (
{
anchors = (
{
name = bottom;
position = "{420, -86}";
},
{
name = bottom_right;
position = "{664, 0}";
},
{
name = top;
position = "{420, 778}";
},
{
name = topleft;
position = "{80, 678}";
},
{
name = topright;
position = "{760, 678}";
}
);
layerId = "CD31F824-B3E8-4361-8C79-B14E59C0EC84";
paths = (
{
closed = 1;
nodes = (
"760 0 LINE",
"760 86 LINE",
"176 86 LINE",
"176 295 LINE",
"760 295 LINE",
"760 381 LINE",
"176 381 LINE",
"176 592 LINE",
"760 592 LINE",
"760 678 LINE",
"80 678 LINE",
"80 0 LINE"
);
}
);
width = 840;
}
);
unicode = 11A12;
},
{
glyphname = nya_zanb;
lastChange = "2020-01-25 05:19:36 +0000";
layers = (
{
anchors = (
{
name = bottom;
position = "{420, -86}";
},
{
name = bottom_right;
position = "{664, 0}";
},
{
name = top;
position = "{420, 778}";
},
{
name = topleft;
position = "{80, 678}";
},
{
name = topright;
position = "{760, 678}";
}
);
layerId = "CD31F824-B3E8-4361-8C79-B14E59C0EC84";
paths = (
{
closed = 1;
nodes = (
"460 0 LINE",
"460 86 LINE",
"176 86 LINE",
"176 295 LINE",
"664 295 LINE",
"664 0 LINE",
"760 0 LINE",
"760 678 LINE",
"80 678 LINE",
"80 592 LINE",
"664 592 LINE",
"664 381 LINE",
"80 381 LINE",
"80 0 LINE"
);
}
);
width = 840;
}
);
unicode = 11A13;
},
{
glyphname = tta_zanb;
lastChange = "2020-01-25 05:19:36 +0000";
layers = (
{
anchors = (
{
name = bottom;
position = "{396, -86}";
},
{
name = bottom_right;
position = "{664, 0}";
},
{
name = top;
position = "{420, 778}";
},
{
name = topleft;
position = "{80, 678}";
},
{
name = topright;
position = "{760, 678}";
}
);
guideLines = (
{
angle = 58.0576;
position = "{503, 252}";
}
);
layerId = "CD31F824-B3E8-4361-8C79-B14E59C0EC84";
paths = (
{
closed = 1;
nodes = (
"176 0 LINE",
"176 323 LINE",
"595 323 LINE",
"394 0 LINE",
"505 0 LINE",
"760 409 LINE",
"176 409 LINE",
"176 592 LINE",
"760 592 LINE",
"760 678 LINE",
"80 678 LINE",
"80 0 LINE"
);
}
);
width = 840;
}
);
unicode = 11A14;
},
{
glyphname = ttha_zanb;
lastChange = "2020-01-25 05:19:36 +0000";
layers = (
{
anchors = (
{
name = bottom;
position = "{420, -86}";
},
{
name = bottom_right;
position = "{664, 0}";
},
{
name = top;
position = "{420, 778}";
},
{
name = topleft;
position = "{80, 678}";
},
{
name = topright;
position = "{760, 678}";
}
);
background = {
paths = (
{
closed = 1;
nodes = (
"80 20 LINE",
"80 0 LINE",
"760 0 LINE",
"760 20 LINE",
"419 399 LINE",
"255 592 LINE",
"585 592 LINE"
);
},
{
closed = 1;
nodes = (
"760 658 LINE",
"760 678 LINE",
"80 678 LINE",
"80 658 LINE",
"585 86 LINE",
"255 86 LINE",
"421 276 LINE"
);
}
);
};
guideLines = (
{
angle = 180;
position = "{420, 678}";
},
{
angle = 131.4771;
position = "{323, 515}";
},
{
angle = 48.0529;
position = "{551, 426}";
}
);
layerId = "CD31F824-B3E8-4361-8C79-B14E59C0EC84";
paths = (
{
closed = 1;
nodes = (
"760 0 LINE",
"760 25 LINE",
"476 342 LINE",
"760 653 LINE",
"760 678 LINE",
"80 678 LINE",
"80 653 LINE",
"362 339 LINE",
"80 25 LINE",
"80 0 LINE"
);
},
{
closed = 1;
nodes = (
"420 280 LINE",
"588 86 LINE",
"246 86 LINE"
);
},
{
closed = 1;
nodes = (
"255 592 LINE",
"589 592 LINE",
"420 405 LINE"
);
}
);
width = 840;
}
);
unicode = 11A15;
},
{
glyphname = dda_zanb;
lastChange = "2020-01-25 05:19:36 +0000";
layers = (
{
anchors = (
{
name = bottom;
position = "{420, -86}";
},
{
name = bottom_right;
position = "{664, 0}";
},
{
name = top;
position = "{420, 778}";
},
{
name = topleft;
position = "{80, 678}";
},
{
name = topright;
position = "{760, 678}";
}
);
layerId = "CD31F824-B3E8-4361-8C79-B14E59C0EC84";
paths = (
{
closed = 1;
nodes = (
"760 0 LINE",
"760 98 LINE",
"209 592 LINE",
"760 592 LINE",
"760 678 LINE",
"80 678 LINE",
"80 580 LINE",
"621 86 LINE",
"80 86 LINE",
"80 0 LINE"
);
}
);
width = 840;
}
);
unicode = 11A16;
},
{
glyphname = ddha_zanb;
lastChange = "2020-01-25 05:19:36 +0000";
layers = (
{
anchors = (
{
name = bottom;
position = "{420, -86}";
},
{
name = bottom_right;
position = "{664, 0}";
},
{
name = top;
position = "{420, 778}";
},
{
name = topleft;
position = "{80, 678}";
},
{
name = topright;
position = "{760, 678}";
}
);
layerId = "CD31F824-B3E8-4361-8C79-B14E59C0EC84";
paths = (
{
closed = 1;
nodes = (
"760 0 LINE",
"760 98 LINE",
"209 592 LINE",
"760 592 LINE",
"760 678 LINE",
"80 678 LINE",
"80 580 LINE",
"621 86 LINE",
"80 86 LINE",
"80 0 LINE"
);
},
{
closed = 1;
nodes = (
"760 412 LINE",
"760 675 LINE",
"664 675 LINE",
"664 412 LINE"
);
}
);
width = 840;
}
);
unicode = 11A17;
},
{
glyphname = nna_zanb;
lastChange = "2020-01-25 05:19:36 +0000";
layers = (
{
anchors = (
{
name = bottom;
position = "{420, -86}";
},
{
name = bottom_right;
position = "{664, 0}";
},
{
name = top;
position = "{420, 778}";
},
{
name = topleft;
position = "{80, 678}";
},
{
name = topright;
position = "{760, 678}";
}
);
background = {
paths = (
{
closed = 1;
nodes = (
"305 273 LINE",
"664 434 LINE",
"664 86 LINE"
);
},
{
closed = 1;
nodes = (
"760 50 LINE",
"760 678 LINE",
"80 678 LINE",
"80 592 LINE",
"664 592 LINE",
"664 517 LINE",
"110 269 LINE",
"664 -20 LINE"
);
}
);
};
guideLines = (
{
angle = 153.2755;
position = "{429, 204}";
},
{
angle = 207.0422;
position = "{419, 344}";
}
);
layerId = "CD31F824-B3E8-4361-8C79-B14E59C0EC84";
paths = (
{
closed = 1;
nodes = (
"760 23 LINE",
"760 678 LINE",
"80 678 LINE",
"80 592 LINE",
"664 592 LINE",
"664 562 LINE",
"90 269 LINE",
"664 -20 LINE"
);
},
{
closed = 1;
nodes = (
"285 276 LINE",
"664 469 LINE",
"664 86 LINE"
);
}
);
width = 840;
}
);
unicode = 11A18;
},
{
glyphname = ta_zanb;
lastChange = "2020-01-25 05:19:36 +0000";
layers = (
{
anchors = (
{
name = bottom;
position = "{420, -86}";
},
{
name = bottom_right;
position = "{664, 0}";
},
{
name = top;
position = "{420, 778}";
},
{
name = topleft;
position = "{80, 678}";
},
{
name = topright;
position = "{760, 678}";
}
);
layerId = "CD31F824-B3E8-4361-8C79-B14E59C0EC84";
paths = (
{
closed = 1;
nodes = (
"176 0 LINE",
"176 323 LINE",
"664 323 LINE",
"664 0 LINE",
"760 0 LINE",
"760 409 LINE",
"176 409 LINE",
"176 592 LINE",
"760 592 LINE",
"760 678 LINE",
"80 678 LINE",
"80 0 LINE"
);
}
);
width = 840;
}
);
unicode = 11A19;
},
{
glyphname = tha_zanb;
lastChange = "2020-01-25 05:19:36 +0000";
layers = (
{
anchors = (
{
name = bottom;
position = "{420, -86}";
},
{
name = bottom_right;
position = "{664, 0}";
},
{
name = top;
position = "{420, 778}";
},
{
name = topleft;
position = "{80, 678}";
},
{
name = topright;
position = "{760, 678}";
}
);
layerId = "CD31F824-B3E8-4361-8C79-B14E59C0EC84";
paths = (
{
closed = 1;
nodes = (
"760 0 LINE",
"760 678 LINE",
"80 678 LINE",
"80 0 LINE"
);
},
{
closed = 1;
nodes = (
"176 296 LINE",
"664 296 LINE",
"664 86 LINE",
"176 86 LINE"
);
},
{
closed = 1;
nodes = (
"176 592 LINE",
"664 592 LINE",
"664 382 LINE",
"176 382 LINE"
);
}
);
width = 840;
}
);
unicode = 11A1A;
},
{
glyphname = da_zanb;
lastChange = "2020-01-25 05:19:36 +0000";
layers = (
{
anchors = (
{
name = bottom;
position = "{420, -86}";
},
{
name = bottom_right;
position = "{664, 0}";
},
{
name = top;
position = "{420, 778}";
},
{
name = topleft;
position = "{80, 678}";
},
{
name = topright;
position = "{760, 678}";
}
);
layerId = "CD31F824-B3E8-4361-8C79-B14E59C0EC84";
paths = (
{
closed = 1;
nodes = (
"760 0 LINE",
"760 382 LINE",
"176 382 LINE",
"176 592 LINE",
"760 592 LINE",
"760 678 LINE",
"80 678 LINE",
"80 296 LINE",
"664 296 LINE",
"664 86 LINE",
"80 86 LINE",
"80 0 LINE"
);
}
);
width = 840;
}
);
unicode = 11A1B;
},
{
glyphname = dha_zanb;
lastChange = "2020-01-25 05:19:36 +0000";
layers = (
{
anchors = (
{
name = bottom;
position = "{420, -86}";
},
{
name = bottom_right;
position = "{626, 0}";
},
{
name = top;
position = "{401, 778}";
},
{
name = topleft;
position = "{80, 678}";
},
{
name = topright;
position = "{760, 678}";
}
);
layerId = "CD31F824-B3E8-4361-8C79-B14E59C0EC84";
paths = (
{
closed = 1;
nodes = (
"176 0 LINE",
"176 332 LINE",
"551 332 LINE",
"551 327 LINE",
"484 303 OFFCURVE",
"411 250 OFFCURVE",
"411 161 CURVE SMOOTH",
"411 82 OFFCURVE",
"470 29 OFFCURVE",
"531 0 CURVE",
"760 0 LINE",
"760 15 LINE",
"642 34 OFFCURVE",
"517 74 OFFCURVE",
"517 166 CURVE SMOOTH",
"517 262 OFFCURVE",
"646 323 OFFCURVE",
"760 332 CURVE",
"760 418 LINE",
"176 418 LINE",
"176 592 LINE",
"760 592 LINE",
"760 678 LINE",
"80 678 LINE",
"80 0 LINE"
);
}
);
width = 840;
}
);
unicode = 11A1C;
},
{
glyphname = na_zanb;
lastChange = "2020-01-25 05:19:36 +0000";
layers = (
{
anchors = (
{
name = bottom;
position = "{420, -86}";
},
{
name = bottom_right;
position = "{664, 0}";
},
{
name = top;
position = "{420, 778}";
},
{
name = topleft;
position = "{80, 678}";
},
{
name = topright;
position = "{760, 678}";
}
);
layerId = "CD31F824-B3E8-4361-8C79-B14E59C0EC84";
paths = (
{
closed = 1;
nodes = (
"468 0 LINE",
"468 282 LINE",
"664 282 LINE",
"664 0 LINE",
"760 0 LINE",
"760 678 LINE",
"80 678 LINE",
"80 592 LINE",
"664 592 LINE",
"664 368 LINE",
"80 368 LINE",
"80 0 LINE"
);
},
{
closed = 1;
nodes = (
"176 282 LINE",
"372 282 LINE",
"372 86 LINE",
"176 86 LINE"
);
}
);
width = 840;
}
);
unicode = 11A1D;
},
{
glyphname = pa_zanb;
lastChange = "2020-01-25 05:19:36 +0000";
layers = (
{
anchors = (
{
name = bottom;
position = "{420, -86}";
},
{
name = bottom_right;
position = "{664, 0}";
},
{
name = top;
position = "{420, 778}";
},
{
name = topleft;
position = "{80, 678}";
},
{
name = topright;
position = "{760, 678}";
}
);
layerId = "CD31F824-B3E8-4361-8C79-B14E59C0EC84";
paths = (
{
closed = 1;
nodes = (
"760 0 LINE",
"760 678 LINE",
"664 678 LINE",
"664 86 LINE",
"176 86 LINE",
"176 678 LINE",
"80 678 LINE",
"80 0 LINE"
);
}
);
width = 840;
}
);
unicode = 11A1E;
},
{
glyphname = pha_zanb;
lastChange = "2020-01-25 05:19:36 +0000";
layers = (
{
anchors = (
{
name = bottom;
position = "{420, -86}";
},
{
name = bottom_right;
position = "{664, 0}";
},
{
name = top;
position = "{420, 778}";
},
{
name = topleft;
position = "{80, 678}";
},
{
name = topright;
position = "{760, 678}";
}
);
layerId = "CD31F824-B3E8-4361-8C79-B14E59C0EC84";
paths = (
{
closed = 1;
nodes = (
"760 0 LINE",
"760 678 LINE",
"372 678 LINE",
"372 86 LINE",
"176 86 LINE",
"176 678 LINE",
"80 678 LINE",
"80 0 LINE"
);
},
{
closed = 1;
nodes = (
"468 592 LINE",
"664 592 LINE",
"664 86 LINE",
"468 86 LINE"
);
}
);
width = 840;
}
);
unicode = 11A1F;
},
{
glyphname = ba_zanb;
lastChange = "2020-01-25 05:19:36 +0000";
layers = (
{
anchors = (
{
name = bottom;
position = "{420, -86}";
},
{
name = bottom_right;
position = "{664, 0}";
},
{
name = top;
position = "{420, 778}";
},
{
name = topleft;
position = "{80, 678}";
},
{
name = topright;
position = "{760, 678}";
}
);
layerId = "CD31F824-B3E8-4361-8C79-B14E59C0EC84";
paths = (
{
closed = 1;
nodes = (
"760 0 LINE",
"760 678 LINE",
"80 678 LINE",
"80 0 LINE"
);
},
{
closed = 1;
nodes = (
"176 592 LINE",
"664 592 LINE",
"664 86 LINE",
"176 86 LINE"
);
}
);
width = 840;
}
);
unicode = 11A20;
},
{
glyphname = bha_zanb;
lastChange = "2020-01-25 05:19:36 +0000";
layers = (
{
anchors = (
{
name = bottom;
position = "{420, -86}";
},
{
name = bottom_right;
position = "{664, 0}";
},
{
name = top;
position = "{420, 778}";
},
{
name = topleft;
position = "{80, 678}";
},
{
name = topright;
position = "{760, 678}";
}
);
layerId = "CD31F824-B3E8-4361-8C79-B14E59C0EC84";
paths = (
{
closed = 1;
nodes = (
"760 0 LINE",
"760 678 LINE",
"80 678 LINE",
"80 668 LINE",
"188 553 OFFCURVE",
"251 457 OFFCURVE",
"251 354 CURVE SMOOTH",
"251 242 OFFCURVE",
"196 136 OFFCURVE",
"80 10 CURVE",
"80 0 LINE"
);
},
{
closed = 1;
nodes = (
"252 88 LINE",
"313 157 OFFCURVE",
"361 244 OFFCURVE",
"361 353 CURVE SMOOTH",
"361 461 OFFCURVE",
"283 551 OFFCURVE",
"251 586 CURVE",
"251 589 LINE",
"664 592 LINE",
"664 86 LINE",
"252 86 LINE"
);
}
);
width = 840;
}
);
unicode = 11A21;
},
{
glyphname = ma_zanb;
lastChange = "2020-01-25 05:19:36 +0000";
layers = (
{
anchors = (
{
name = bottom;
position = "{420, -86}";
},
{
name = bottom_right;
position = "{664, 0}";
},
{
name = top;
position = "{420, 778}";
},
{
name = topleft;
position = "{80, 678}";
},
{
name = topright;
position = "{760, 678}";
}
);
layerId = "CD31F824-B3E8-4361-8C79-B14E59C0EC84";
paths = (
{
closed = 1;
nodes = (
"760 0 LINE",
"760 678 LINE",
"664 678 LINE",
"664 86 LINE",
"468 86 LINE",
"468 678 LINE",
"80 678 LINE",
"80 0 LINE"
);
},
{
closed = 1;
nodes = (
"176 592 LINE",
"372 592 LINE",
"372 86 LINE",
"176 86 LINE"
);
}
);
width = 840;
}
);
unicode = 11A22;
},
{
glyphname = tsa_zanb;
lastChange = "2020-01-25 05:19:36 +0000";
layers = (
{
anchors = (
{
name = bottom;
position = "{420, -86}";
},
{
name = bottom_right;
position = "{664, 0}";
},
{
name = top;
position = "{420, 778}";
},
{
name = topleft;
position = "{80, 678}";
},
{
name = topright;
position = "{760, 678}";
}
);
background = {
anchors = (
{
name = bottom;
position = "{420, -86}";
},
{
name = bottom_right;
position = "{664, 0}";
},
{
name = top;
position = "{420, 778}";
},
{
name = topleft;
position = "{80, 678}";
},
{
name = topright;
position = "{760, 678}";
}
);
components = (
{
name = _part.flag;
transform = "{1, 0, 0, 1, 651, -57}";
}
);
paths = (
{
closed = 1;
nodes = (
"468 592 LINE",
"664 592 LINE",
"664 86 LINE",
"468 86 LINE"
);
},
{
closed = 1;
nodes = (
"80 678 LINE",
"80 592 LINE",
"372 592 LINE",
"372 86 LINE",
"80 86 LINE",
"80 0 LINE",
"760 0 LINE",
"760 678 LINE"
);
}
);
};
layerId = "CD31F824-B3E8-4361-8C79-B14E59C0EC84";
paths = (
{
closed = 1;
nodes = (
"760 0 LINE",
"760 678 LINE",
"800 750 LINE",
"850 736 OFFCURVE",
"898 733 OFFCURVE",
"950 733 CURVE",
"969 768 OFFCURVE",
"980 810 OFFCURVE",
"976 859 CURVE",
"942 848 OFFCURVE",
"909 844 OFFCURVE",
"878 844 CURVE SMOOTH",
"847 844 OFFCURVE",
"816 848 OFFCURVE",
"784 855 CURVE",
"685 678 LINE",
"80 678 LINE",
"80 592 LINE",
"372 592 LINE",
"372 86 LINE",
"80 86 LINE",
"80 0 LINE"
);
},
{
closed = 1;
nodes = (
"468 592 LINE",
"664 592 LINE",
"664 86 LINE",
"468 86 LINE"
);
}
);
width = 840;
}
);
unicode = 11A23;
},
{
glyphname = tsha_zanb;
lastChange = "2020-01-25 05:19:36 +0000";
layers = (
{
anchors = (
{
name = bottom;
position = "{420, -86}";
},
{
name = bottom_right;
position = "{664, 0}";
},
{
name = top;
position = "{420, 778}";
},
{
name = topleft;
position = "{80, 678}";
},
{
name = topright;
position = "{760, 678}";
}
);
layerId = "CD31F824-B3E8-4361-8C79-B14E59C0EC84";
paths = (
{
closed = 1;
nodes = (
"760 0 LINE",
"760 678 LINE",
"800 750 LINE",
"850 736 OFFCURVE",
"898 733 OFFCURVE",
"950 733 CURVE",
"969 768 OFFCURVE",
"980 810 OFFCURVE",
"976 859 CURVE",
"942 848 OFFCURVE",
"909 844 OFFCURVE",
"878 844 CURVE SMOOTH",
"847 844 OFFCURVE",
"816 848 OFFCURVE",
"784 855 CURVE",
"685 678 LINE",
"80 678 LINE",
"80 0 LINE"
);
},
{
closed = 1;
nodes = (
"176 592 LINE",
"372 592 LINE",
"372 86 LINE",
"176 86 LINE"
);
},
{
closed = 1;
nodes = (
"468 592 LINE",
"664 592 LINE",
"664 86 LINE",
"468 86 LINE"
);
}
);
width = 840;
}
);
unicode = 11A24;
},
{
glyphname = dza_zanb;
lastChange = "2020-01-25 05:19:36 +0000";
layers = (
{
anchors = (
{
name = bottom;
position = "{420, -86}";
},
{
name = bottom_right;
position = "{664, 0}";
},
{
name = top;
position = "{420, 778}";
},
{
name = topleft;
position = "{80, 678}";
},
{
name = topright;
position = "{760, 678}";
}
);
background = {
paths = (
{
closed = 1;
nodes = (
"923 848 OFFCURVE",
"890 844 OFFCURVE",
"858 844 CURVE SMOOTH",
"828 844 OFFCURVE",
"797 848 OFFCURVE",
"765 855 CURVE",
"747 813 OFFCURVE",
"725 766 OFFCURVE",
"681 678 CURVE",
"80 678 LINE",
"80 0 LINE",
"760 0 LINE",
"760 86 LINE",
"176 86 LINE",
"176 296 LINE",
"760 296 LINE",
"760 382 LINE",
"176 382 LINE",
"176 592 LINE",
"699 592 LINE",
"737 668 OFFCURVE",
"761 718 OFFCURVE",
"777 751 CURVE",
"830 737 OFFCURVE",
"879 733 OFFCURVE",
"931 733 CURVE",
"950 768 OFFCURVE",
"961 810 OFFCURVE",
"957 859 CURVE"
);
}
);
};
guideLines = (
{
angle = 244.0412;
position = "{786, 770}";
}
);
layerId = "CD31F824-B3E8-4361-8C79-B14E59C0EC84";
paths = (
{
closed = 1;
nodes = (
"760 0 LINE",
"760 86 LINE",
"176 86 LINE",
"176 296 LINE",
"760 296 LINE",
"760 382 LINE",
"176 382 LINE",
"176 592 LINE",
"693 592 LINE",
"781 750 LINE",
"831 736 OFFCURVE",
"879 733 OFFCURVE",
"931 733 CURVE",
"950 768 OFFCURVE",
"961 810 OFFCURVE",
"957 859 CURVE",
"923 848 OFFCURVE",
"890 844 OFFCURVE",
"859 844 CURVE SMOOTH",
"828 844 OFFCURVE",
"797 848 OFFCURVE",
"765 855 CURVE",
"666 678 LINE",
"80 678 LINE",
"80 0 LINE"
);
}
);
width = 840;
}
);
unicode = 11A25;
},
{
glyphname = dzha_zanb;
lastChange = "2020-01-25 05:19:36 +0000";
layers = (
{
anchors = (
{
name = bottom;
position = "{420, -86}";
},
{
name = bottom_right;
position = "{664, 0}";
},
{
name = top;
position = "{420, 778}";
},
{
name = topleft;
position = "{80, 678}";
},
{
name = topright;
position = "{760, 678}";
}
);
background = {
paths = (
{
closed = 1;
nodes = (
"760 678 LINE",
"80 678 LINE",
"80 0 LINE",
"760 0 LINE",
"760 86 LINE",
"176 86 LINE",
"176 296 LINE",
"450 296 LINE",
"450 382 LINE",
"176 382 LINE",
"176 592 LINE",
"760 592 LINE"
);
},
{
closed = 1;
nodes = (
"648 272 LINE",
"634 260 OFFCURVE",
"615 253 OFFCURVE",
"595 253 CURVE SMOOTH",
"548 253 OFFCURVE",
"511 290 OFFCURVE",
"511 337 CURVE SMOOTH",
"511 383 OFFCURVE",
"548 420 OFFCURVE",
"595 420 CURVE SMOOTH",
"620 420 OFFCURVE",
"642 409 OFFCURVE",
"657 392 CURVE",
"725 450 LINE",
"693 487 OFFCURVE",
"647 510 OFFCURVE",
"595 510 CURVE SMOOTH",
"499 510 OFFCURVE",
"421 432 OFFCURVE",
"421 337 CURVE SMOOTH",
"421 241 OFFCURVE",
"499 163 OFFCURVE",
"595 163 CURVE SMOOTH",
"642 163 OFFCURVE",
"684 182 OFFCURVE",
"715 212 CURVE"
);
}
);
};
layerId = "CD31F824-B3E8-4361-8C79-B14E59C0EC84";
paths = (
{
closed = 1;
nodes = (
"760 0 LINE",
"760 86 LINE",
"176 86 LINE",
"176 296 LINE",
"450 296 LINE",
"450 382 LINE",
"176 382 LINE",
"176 592 LINE",
"693 592 LINE",
"781 750 LINE",
"831 736 OFFCURVE",
"879 733 OFFCURVE",
"931 733 CURVE",
"950 768 OFFCURVE",
"961 810 OFFCURVE",
"957 859 CURVE",
"923 848 OFFCURVE",
"890 844 OFFCURVE",
"859 844 CURVE SMOOTH",
"828 844 OFFCURVE",
"797 848 OFFCURVE",
"765 855 CURVE",
"666 678 LINE",
"80 678 LINE",
"80 0 LINE"
);
},
{
closed = 1;
nodes = (
"642 163 OFFCURVE",
"684 182 OFFCURVE",
"715 212 CURVE",
"648 272 LINE",
"634 260 OFFCURVE",
"615 253 OFFCURVE",
"595 253 CURVE SMOOTH",
"548 253 OFFCURVE",
"511 290 OFFCURVE",
"511 337 CURVE SMOOTH",
"511 383 OFFCURVE",
"548 420 OFFCURVE",
"595 420 CURVE SMOOTH",
"620 420 OFFCURVE",
"642 409 OFFCURVE",
"657 392 CURVE",
"725 450 LINE",
"693 487 OFFCURVE",
"647 510 OFFCURVE",
"595 510 CURVE SMOOTH",
"499 510 OFFCURVE",
"421 432 OFFCURVE",
"421 337 CURVE SMOOTH",
"421 241 OFFCURVE",
"499 163 OFFCURVE",
"595 163 CURVE SMOOTH"
);
}
);
width = 840;
}
);
unicode = 11A26;
},
{
glyphname = zha_zanb;
lastChange = "2020-01-25 05:19:36 +0000";
layers = (
{
anchors = (
{
name = bottom;
position = "{420, -86}";
},
{
name = bottom_right;
position = "{664, 0}";
},
{
name = top;
position = "{420, 778}";
},
{
name = topleft;
position = "{80, 678}";
},
{
name = topright;
position = "{760, 678}";
}
);
layerId = "CD31F824-B3E8-4361-8C79-B14E59C0EC84";
paths = (
{
closed = 1;
nodes = (
"176 0 LINE",
"176 592 LINE",
"664 592 LINE",
"664 403 LINE",
"596 403 LINE SMOOTH",
"413 403 OFFCURVE",
"323 338 OFFCURVE",
"323 197 CURVE SMOOTH",
"323 61 OFFCURVE",
"413 0 OFFCURVE",
"596 0 CURVE SMOOTH",
"760 0 LINE",
"760 678 LINE",
"80 678 LINE",
"80 0 LINE"
);
},
{
closed = 1;
nodes = (
"478 86 OFFCURVE",
"419 127 OFFCURVE",
"419 197 CURVE SMOOTH",
"419 273 OFFCURVE",
"478 317 OFFCURVE",
"596 317 CURVE SMOOTH",
"664 317 LINE",
"664 86 LINE",
"596 86 LINE SMOOTH"
);
}
);
width = 840;
}
);
unicode = 11A27;
},
{
glyphname = za_zanb;
lastChange = "2020-01-25 05:19:36 +0000";
layers = (
{
anchors = (
{
name = bottom;
position = "{420, -86}";
},
{
name = bottom_right;
position = "{664, 0}";
},
{
name = top;
position = "{420, 778}";
},
{
name = topleft;
position = "{80, 678}";
},
{
name = topright;
position = "{760, 678}";
}
);
layerId = "CD31F824-B3E8-4361-8C79-B14E59C0EC84";
paths = (
{
closed = 1;
nodes = (
"760 0 LINE",
"760 678 LINE",
"80 678 LINE",
"80 592 LINE",
"663 592 LINE",
"663 382 LINE",
"80 382 LINE",
"80 296 LINE",
"663 296 LINE",
"663 86 LINE",
"80 86 LINE",
"80 0 LINE"
);
}
);
width = 840;
}
);
unicode = 11A28;
},
{
glyphname = aa_zanb;
lastChange = "2020-01-25 05:19:36 +0000";
layers = (
{
anchors = (
{
name = bottom;
position = "{420, -86}";
},
{
name = bottom_right;
position = "{664, 0}";
},
{
name = top;
position = "{420, 778}";
},
{
name = topleft;
position = "{80, 678}";
},
{
name = topright;
position = "{760, 678}";
}
);
layerId = "CD31F824-B3E8-4361-8C79-B14E59C0EC84";
paths = (
{
closed = 1;
nodes = (
"176 0 LINE",
"176 592 LINE",
"663 592 LINE",
"663 391 LINE",
"371 391 LINE",
"371 0 LINE",
"760 0 LINE",
"760 86 LINE",
"467 86 LINE",
"467 305 LINE",
"760 305 LINE",
"760 678 LINE",
"80 678 LINE",
"80 0 LINE"
);
}
);
width = 840;
}
);
unicode = 11A29;
},
{
glyphname = ya_zanb;
lastChange = "2020-01-25 05:19:36 +0000";
layers = (
{
anchors = (
{
name = bottom;
position = "{420, -86}";
},
{
name = bottom_right;
position = "{664, 0}";
},
{
name = top;
position = "{420, 778}";
},
{
name = topleft;
position = "{80, 678}";
},
{
name = topright;
position = "{760, 678}";
}
);
layerId = "CD31F824-B3E8-4361-8C79-B14E59C0EC84";
paths = (
{
closed = 1;
nodes = (
"760 0 LINE",
"760 678 LINE",
"664 678 LINE",
"664 86 LINE",
"468 86 LINE",
"468 678 LINE",
"372 678 LINE",
"372 86 LINE",
"176 86 LINE",
"176 678 LINE",
"80 678 LINE",
"80 0 LINE"
);
}
);
width = 840;
}
);
unicode = 11A2A;
},
{
glyphname = ra_zanb;
lastChange = "2020-01-25 05:19:36 +0000";
layers = (
{
anchors = (
{
name = bottom;
position = "{420, -86}";
},
{
name = bottom_right;
position = "{664, 0}";
},
{
name = top;
position = "{420, 778}";
},
{
name = topleft;
position = "{80, 678}";
},
{
name = topright;
position = "{760, 678}";
}
);
layerId = "CD31F824-B3E8-4361-8C79-B14E59C0EC84";
paths = (
{
closed = 1;
nodes = (
"176 0 LINE",
"176 336 LINE",
"664 336 LINE",
"664 0 LINE",
"760 0 LINE",
"760 422 LINE",
"468 422 LINE",
"468 592 LINE",
"760 592 LINE",
"760 678 LINE",
"80 678 LINE",
"80 592 LINE",
"372 592 LINE",
"372 422 LINE",
"80 422 LINE",
"80 0 LINE"
);
}
);
width = 840;
}
);
unicode = 11A2B;
},
{
glyphname = la_zanb;
lastChange = "2020-01-25 05:19:36 +0000";
layers = (
{
anchors = (
{
name = bottom;
position = "{420, -86}";
},
{
name = bottom_right;
position = "{664, 0}";
},
{
name = top;
position = "{420, 778}";
},
{
name = topleft;
position = "{80, 678}";
},
{
name = topright;
position = "{760, 678}";
}
);
layerId = "CD31F824-B3E8-4361-8C79-B14E59C0EC84";
paths = (
{
closed = 1;
nodes = (
"176 0 LINE",
"176 592 LINE",
"372 592 LINE",
"372 0 LINE",
"760 0 LINE",
"760 678 LINE",
"664 678 LINE",
"664 86 LINE",
"468 86 LINE",
"468 678 LINE",
"80 678 LINE",
"80 0 LINE"
);
}
);
width = 840;
}
);
unicode = 11A2C;
},
{
glyphname = va_zanb;
lastChange = "2020-01-25 05:19:36 +0000";
layers = (
{
anchors = (
{
name = bottom;
position = "{420, -86}";
},
{
name = bottom_right;
position = "{664, 0}";
},
{
name = top;
position = "{420, 778}";
},
{
name = topleft;
position = "{80, 678}";
},
{
name = topright;
position = "{760, 678}";
}
);
layerId = "CD31F824-B3E8-4361-8C79-B14E59C0EC84";
paths = (
{
closed = 1;
nodes = (
"176 0 LINE",
"176 592 LINE",
"431 592 LINE",
"431 435 LINE",
"529 435 LINE",
"529 592 LINE",
"760 592 LINE",
"760 678 LINE",
"80 678 LINE",
"80 0 LINE"
);
},
{
closed = 1;
nodes = (
"604 -3 OFFCURVE",
"706 98 OFFCURVE",
"706 222 CURVE SMOOTH",
"706 345 OFFCURVE",
"604 446 OFFCURVE",
"480 446 CURVE SMOOTH",
"356 446 OFFCURVE",
"254 345 OFFCURVE",
"254 222 CURVE SMOOTH",
"254 98 OFFCURVE",
"356 -3 OFFCURVE",
"480 -3 CURVE SMOOTH"
);
},
{
closed = 1;
nodes = (
"408 83 OFFCURVE",
"350 141 OFFCURVE",
"350 222 CURVE SMOOTH",
"350 303 OFFCURVE",
"408 361 OFFCURVE",
"480 361 CURVE SMOOTH",
"552 361 OFFCURVE",
"610 303 OFFCURVE",
"610 222 CURVE SMOOTH",
"610 141 OFFCURVE",
"552 83 OFFCURVE",
"480 83 CURVE SMOOTH"
);
}
);
width = 840;
}
);
unicode = 11A2D;
},
{
glyphname = sha_zanb;
lastChange = "2020-01-25 05:19:36 +0000";
layers = (
{
anchors = (
{
name = bottom;
position = "{420, -86}";
},
{
name = bottom_right;
position = "{664, 0}";
},
{
name = top;
position = "{420, 778}";
},
{
name = topleft;
position = "{80, 678}";
},
{
name = topright;
position = "{760, 678}";
}
);
layerId = "CD31F824-B3E8-4361-8C79-B14E59C0EC84";
paths = (
{
closed = 1;
nodes = (
"176 0 LINE",
"176 293 LINE",
"372 293 LINE",
"372 0 LINE",
"760 0 LINE",
"760 678 LINE",
"372 678 LINE",
"372 379 LINE",
"176 379 LINE",
"176 678 LINE",
"80 678 LINE",
"80 0 LINE"
);
},
{
closed = 1;
nodes = (
"468 592 LINE",
"664 592 LINE",
"664 86 LINE",
"468 86 LINE"
);
}
);
width = 840;
}
);
unicode = 11A2E;
},
{
glyphname = ssa_zanb;
lastChange = "2020-01-25 05:19:36 +0000";
layers = (
{
anchors = (
{
name = bottom;
position = "{420, -86}";
},
{
name = bottom_right;
position = "{664, 0}";
},
{
name = top;
position = "{420, 778}";
},
{
name = topleft;
position = "{80, 678}";
},
{
name = topright;
position = "{760, 678}";
}
);
background = {
paths = (
{
closed = 1;
nodes = (
"372 592 LINE",
"372 86 LINE",
"176 86 LINE",
"176 592 LINE"
);
},
{
closed = 1;
nodes = (
"469 678 LINE",
"79 678 LINE",
"79 0 LINE",
"469 0 LINE",
"469 293 LINE",
"665 293 LINE",
"665 0 LINE",
"762 0 LINE",
"762 678 LINE",
"665 678 LINE",
"665 379 LINE",
"469 379 LINE"
);
}
);
};
layerId = "CD31F824-B3E8-4361-8C79-B14E59C0EC84";
paths = (
{
closed = 1;
nodes = (
"468 0 LINE",
"468 293 LINE",
"664 293 LINE",
"664 0 LINE",
"760 0 LINE",
"760 678 LINE",
"664 678 LINE",
"664 379 LINE",
"468 379 LINE",
"468 678 LINE",
"80 678 LINE",
"80 0 LINE"
);
},
{
closed = 1;
nodes = (
"176 592 LINE",
"372 592 LINE",
"372 86 LINE",
"176 86 LINE"
);
}
);
width = 840;
}
);
unicode = 11A2F;
},
{
glyphname = sa_zanb;
lastChange = "2020-01-25 05:19:36 +0000";
layers = (
{
anchors = (
{
name = bottom;
position = "{420, -86}";
},
{
name = bottom_right;
position = "{664, 0}";
},
{
name = top;
position = "{420, 778}";
},
{
name = topleft;
position = "{80, 678}";
},
{
name = topright;
position = "{760, 678}";
}
);
layerId = "CD31F824-B3E8-4361-8C79-B14E59C0EC84";
paths = (
{
closed = 1;
nodes = (
"176 0 LINE",
"176 532 LINE",
"664 0 LINE",
"760 0 LINE",
"760 678 LINE",
"664 678 LINE",
"664 146 LINE",
"176 678 LINE",
"80 678 LINE",
"80 0 LINE"
);
}
);
width = 840;
}
);
unicode = 11A30;
},
{
glyphname = ha_zanb;
lastChange = "2020-01-25 05:19:36 +0000";
layers = (
{
anchors = (
{
name = bottom;
position = "{420, -86}";
},
{
name = bottom_right;
position = "{664, 0}";
},
{
name = top;
position = "{420, 778}";
},
{
name = topleft;
position = "{80, 678}";
},
{
name = topright;
position = "{760, 678}";
}
);
layerId = "CD31F824-B3E8-4361-8C79-B14E59C0EC84";
paths = (
{
closed = 1;
nodes = (
"468 0 LINE",
"468 329 LINE",
"664 329 LINE",
"664 0 LINE",
"760 0 LINE",
"760 415 LINE",
"372 415 LINE",
"372 86 LINE",
"176 86 LINE",
"176 592 LINE",
"760 592 LINE",
"760 678 LINE",
"80 678 LINE",
"80 0 LINE"
);
}
);
width = 840;
}
);
unicode = 11A31;
},
{
glyphname = kssa_zanb;
lastChange = "2020-01-25 05:19:36 +0000";
layers = (
{
anchors = (
{
name = bottom;
position = "{420, -86}";
},
{
name = bottom_right;
position = "{664, 0}";
},
{
name = top;
position = "{420, 778}";
},
{
name = topleft;
position = "{80, 678}";
},
{
name = topright;
position = "{760, 678}";
}
);
layerId = "CD31F824-B3E8-4361-8C79-B14E59C0EC84";
paths = (
{
closed = 1;
nodes = (
"468 0 LINE",
"468 86 LINE",
"176 86 LINE",
"176 299 LINE",
"468 299 LINE",
"468 592 LINE",
"664 592 LINE",
"664 0 LINE",
"760 0 LINE",
"760 678 LINE",
"80 678 LINE",
"80 592 LINE",
"372 592 LINE",
"372 385 LINE",
"80 385 LINE",
"80 0 LINE"
);
}
);
width = 840;
}
);
unicode = 11A32;
},
{
glyphname = initialRa_zanb;
lastChange = "2020-01-25 05:19:36 +0000";
layers = (
{
anchors = (
{
name = bottom;
position = "{420, 435}";
},
{
name = top;
position = "{420, 778}";
},
{
name = topleft;
position = "{80, 678}";
},
{
name = topright;
position = "{760, 678}";
}
);
guideLines = (
{
angle = 180;
position = "{-420, 385}";
}
);
layerId = "CD31F824-B3E8-4361-8C79-B14E59C0EC84";
paths = (
{
closed = 1;
nodes = (
"468 375 LINE",
"468 592 LINE",
"760 592 LINE",
"760 678 LINE",
"80 678 LINE",
"80 592 LINE",
"372 592 LINE",
"372 375 LINE"
);
}
);
width = 840;
}
);
unicode = 11A3A;
},
{
glyphname = a_zanb.sub;
lastChange = "2020-01-25 05:19:36 +0000";
layers = (
{
anchors = (
{
name = _bottom;
position = "{-420, -123}";
}
);
background = {
paths = (
{
closed = 1;
nodes = (
"372 658 LINE",
"372 86 LINE",
"176 86 LINE",
"176 678 LINE",
"80 678 LINE",
"80 0 LINE",
"468 0 LINE",
"468 658 LINE"
);
},
{
closed = 1;
nodes = (
"961 678 LINE",
"961 86 LINE",
"765 86 LINE",
"765 658 LINE",
"669 658 LINE",
"669 0 LINE",
"1057 0 LINE",
"1057 678 LINE"
);
},
{
closed = 1;
nodes = (
"760 572 LINE",
"760 658 LINE",
"424 658 LINE",
"424 572 LINE"
);
}
);
};
components = (
{
name = a_zanb;
transform = "{1, 0, 0, 1, -1136, -801}";
}
);
layerId = "CD31F824-B3E8-4361-8C79-B14E59C0EC84";
width = 0;
}
);
script = zanb;
category = Mark;
subCategory = Nonspacing;
},
{
glyphname = tsa_zanb.sub;
lastChange = "2020-01-25 05:19:36 +0000";
layers = (
{
anchors = (
{
name = _bottom;
position = "{-420, -123}";
},
{
name = bottom;
position = "{-420, -887}";
},
{
name = bottom_right;
position = "{-176, -801}";
}
);
background = {
components = (
{
name = _part.flag;
piece = {
flat = 100;
};
transform = "{1, 0, 0, 1, -189, -858}";
}
);
};
layerId = "CD31F824-B3E8-4361-8C79-B14E59C0EC84";
paths = (
{
closed = 1;
nodes = (
"-80 -801 LINE",
"-80 -123 LINE",
"-760 -123 LINE",
"-760 -209 LINE",
"-468 -209 LINE",
"-468 -715 LINE",
"-760 -715 LINE",
"-760 -801 LINE"
);
},
{
closed = 1;
nodes = (
"-372 -209 LINE",
"-176 -209 LINE",
"-176 -715 LINE",
"-372 -715 LINE"
);
},
{
closed = 1;
nodes = (
"118 -149 OFFCURVE",
"143 -119 OFFCURVE",
"159 -71 CURVE",
"132 -62 OFFCURVE",
"119 -56 OFFCURVE",
"93 -42 CURVE SMOOTH",
"68 -29 OFFCURVE",
"46 -13 OFFCURVE",
"21 7 CURVE",
"-36 -38 OFFCURVE",
"-95 -84 OFFCURVE",
"-194 -136 CURVE",
"-100 -136 LINE",
"-72 -118 OFFCURVE",
"-63 -112 OFFCURVE",
"-35 -93 CURVE",
"12 -131 OFFCURVE",
"35 -146 OFFCURVE",
"86 -168 CURVE"
);
}
);
width = 0;
}
);
script = zanb;
category = Mark;
subCategory = Nonspacing;
},
{
glyphname = tsha_zanb.sub;
lastChange = "2020-01-25 05:19:36 +0000";
layers = (
{
anchors = (
{
name = _bottom;
position = "{-420, -123}";
},
{
name = bottom;
position = "{-420, -887}";
},
{
name = bottom_right;
position = "{-176, -801}";
}
);
background = {
components = (
{
name = _part.flag;
piece = {
flat = 100;
};
transform = "{1, 0, 0, 1, -189, -858}";
}
);
};
layerId = "CD31F824-B3E8-4361-8C79-B14E59C0EC84";
paths = (
{
closed = 1;
nodes = (
"-80 -801 LINE",
"-80 -123 LINE",
"-760 -123 LINE",
"-760 -801 LINE"
);
},
{
closed = 1;
nodes = (
"-664 -209 LINE",
"-468 -209 LINE",
"-468 -715 LINE",
"-664 -715 LINE"
);
},
{
closed = 1;
nodes = (
"-372 -209 LINE",
"-176 -209 LINE",
"-176 -715 LINE",
"-372 -715 LINE"
);
},
{
closed = 1;
nodes = (
"118 -149 OFFCURVE",
"143 -119 OFFCURVE",
"159 -71 CURVE",
"132 -62 OFFCURVE",
"119 -56 OFFCURVE",
"93 -42 CURVE SMOOTH",
"68 -29 OFFCURVE",
"46 -13 OFFCURVE",
"21 7 CURVE",
"-36 -38 OFFCURVE",
"-95 -84 OFFCURVE",
"-194 -136 CURVE",
"-100 -136 LINE",
"-72 -118 OFFCURVE",
"-63 -112 OFFCURVE",
"-35 -93 CURVE",
"12 -131 OFFCURVE",
"35 -146 OFFCURVE",
"86 -168 CURVE"
);
}
);
width = 0;
}
);
script = zanb;
category = Mark;
subCategory = Nonspacing;
},
{
glyphname = dza_zanb.sub;
lastChange = "2020-01-25 05:19:36 +0000";
layers = (
{
anchors = (
{
name = _bottom;
position = "{-420, -123}";
},
{
name = bottom;
position = "{-420, -887}";
},
{
name = bottom_right;
position = "{-159, -801}";
}
);
layerId = "CD31F824-B3E8-4361-8C79-B14E59C0EC84";
paths = (
{
closed = 1;
nodes = (
"-80 -801 LINE",
"-80 -715 LINE",
"-664 -715 LINE",
"-664 -505 LINE",
"-80 -505 LINE",
"-80 -419 LINE",
"-664 -419 LINE",
"-664 -209 LINE",
"-107 -209 LINE",
"-107 -123 LINE",
"-760 -123 LINE",
"-760 -801 LINE"
);
},
{
closed = 1;
nodes = (
"111 -149 OFFCURVE",
"136 -119 OFFCURVE",
"152 -71 CURVE",
"125 -62 OFFCURVE",
"112 -56 OFFCURVE",
"86 -42 CURVE SMOOTH",
"61 -29 OFFCURVE",
"39 -13 OFFCURVE",
"14 7 CURVE",
"-43 -38 OFFCURVE",
"-102 -84 OFFCURVE",
"-201 -136 CURVE",
"-107 -136 LINE",
"-79 -118 OFFCURVE",
"-70 -112 OFFCURVE",
"-42 -93 CURVE",
"5 -131 OFFCURVE",
"28 -146 OFFCURVE",
"79 -168 CURVE"
);
}
);
width = 0;
}
);
script = zanb;
category = Mark;
subCategory = Nonspacing;
},
{
glyphname = dzha_zanb.sub;
lastChange = "2020-01-25 05:19:36 +0000";
layers = (
{
anchors = (
{
name = _bottom;
position = "{-420, -123}";
},
{
name = bottom;
position = "{-420, -887}";
},
{
name = bottom_right;
position = "{-173, -801}";
}
);
background = {
components = (
{
name = _part.flag;
piece = {
flat = 100;
};
transform = "{1, 0, 0, 1, -189, -858}";
}
);
};
layerId = "CD31F824-B3E8-4361-8C79-B14E59C0EC84";
paths = (
{
closed = 1;
nodes = (
"-80 -801 LINE",
"-80 -715 LINE",
"-664 -715 LINE",
"-664 -505 LINE",
"-390 -505 LINE",
"-390 -419 LINE",
"-664 -419 LINE",
"-664 -209 LINE",
"-107 -209 LINE",
"-107 -123 LINE",
"-760 -123 LINE",
"-760 -801 LINE"
);
},
{
closed = 1;
nodes = (
"-198 -638 OFFCURVE",
"-156 -619 OFFCURVE",
"-125 -589 CURVE",
"-192 -529 LINE",
"-206 -541 OFFCURVE",
"-225 -548 OFFCURVE",
"-245 -548 CURVE SMOOTH",
"-292 -548 OFFCURVE",
"-329 -511 OFFCURVE",
"-329 -464 CURVE SMOOTH",
"-329 -418 OFFCURVE",
"-292 -381 OFFCURVE",
"-245 -381 CURVE SMOOTH",
"-220 -381 OFFCURVE",
"-198 -392 OFFCURVE",
"-183 -409 CURVE",
"-115 -351 LINE",
"-147 -314 OFFCURVE",
"-193 -291 OFFCURVE",
"-245 -291 CURVE SMOOTH",
"-341 -291 OFFCURVE",
"-419 -369 OFFCURVE",
"-419 -464 CURVE SMOOTH",
"-419 -560 OFFCURVE",
"-341 -638 OFFCURVE",
"-245 -638 CURVE SMOOTH"
);
},
{
closed = 1;
nodes = (
"111 -149 OFFCURVE",
"136 -119 OFFCURVE",
"152 -71 CURVE",
"125 -62 OFFCURVE",
"112 -56 OFFCURVE",
"86 -42 CURVE SMOOTH",
"61 -29 OFFCURVE",
"39 -13 OFFCURVE",
"14 7 CURVE",
"-43 -38 OFFCURVE",
"-102 -84 OFFCURVE",
"-201 -136 CURVE",
"-107 -136 LINE",
"-79 -118 OFFCURVE",
"-70 -112 OFFCURVE",
"-42 -93 CURVE",
"5 -131 OFFCURVE",
"28 -146 OFFCURVE",
"79 -168 CURVE"
);
}
);
width = 0;
}
);
script = zanb;
category = Mark;
subCategory = Nonspacing;
},
{
glyphname = tsa_zanb.flat;
lastChange = "2020-01-25 05:19:36 +0000";
layers = (
{
anchors = (
{
name = bottom;
position = "{420, -86}";
},
{
name = bottom_right;
position = "{664, 0}";
},
{
name = top;
position = "{420, 778}";
},
{
name = topleft;
position = "{80, 678}";
},
{
name = topright;
position = "{760, 678}";
}
);
background = {
components = (
{
name = _part.flag;
piece = {
flat = 100;
};
transform = "{1, 0, 0, 1, 651, -57}";
}
);
};
layerId = "CD31F824-B3E8-4361-8C79-B14E59C0EC84";
paths = (
{
closed = 1;
nodes = (
"760 0 LINE",
"760 678 LINE",
"80 678 LINE",
"80 592 LINE",
"372 592 LINE",
"372 86 LINE",
"80 86 LINE",
"80 0 LINE"
);
},
{
closed = 1;
nodes = (
"468 592 LINE",
"664 592 LINE",
"664 86 LINE",
"468 86 LINE"
);
},
{
closed = 1;
nodes = (
"975 652 OFFCURVE",
"1000 682 OFFCURVE",
"1016 730 CURVE",
"989 739 OFFCURVE",
"976 745 OFFCURVE",
"950 759 CURVE SMOOTH",
"925 772 OFFCURVE",
"903 788 OFFCURVE",
"878 808 CURVE",
"821 763 OFFCURVE",
"762 717 OFFCURVE",
"663 665 CURVE",
"757 665 LINE",
"785 683 OFFCURVE",
"794 689 OFFCURVE",
"822 708 CURVE",
"869 670 OFFCURVE",
"892 655 OFFCURVE",
"943 633 CURVE"
);
}
);
width = 927;
}
);
script = zanb;
category = Letter;
subCategory = Other;
},
{
glyphname = tsha_zanb.flat;
lastChange = "2020-01-25 05:19:36 +0000";
layers = (
{
anchors = (
{
name = bottom;
position = "{420, -86}";
},
{
name = bottom_right;
position = "{664, 0}";
},
{
name = top;
position = "{420, 778}";
},
{
name = topleft;
position = "{80, 678}";
},
{
name = topright;
position = "{760, 678}";
}
);
layerId = "CD31F824-B3E8-4361-8C79-B14E59C0EC84";
paths = (
{
closed = 1;
nodes = (
"760 0 LINE",
"760 667 LINE",
"786 683 OFFCURVE",
"795 690 OFFCURVE",
"822 708 CURVE",
"869 670 OFFCURVE",
"892 655 OFFCURVE",
"943 633 CURVE",
"975 652 OFFCURVE",
"1000 682 OFFCURVE",
"1016 730 CURVE",
"989 739 OFFCURVE",
"976 745 OFFCURVE",
"950 759 CURVE SMOOTH",
"925 772 OFFCURVE",
"903 788 OFFCURVE",
"878 808 CURVE",
"826 767 OFFCURVE",
"772 725 OFFCURVE",
"687 678 CURVE",
"80 678 LINE",
"80 0 LINE"
);
},
{
closed = 1;
nodes = (
"176 592 LINE",
"372 592 LINE",
"372 86 LINE",
"176 86 LINE"
);
},
{
closed = 1;
nodes = (
"468 592 LINE",
"664 592 LINE",
"664 86 LINE",
"468 86 LINE"
);
}
);
width = 927;
}
);
script = zanb;
category = Letter;
subCategory = Other;
},
{
glyphname = dza_zanb.flat;
lastChange = "2020-01-25 05:19:36 +0000";
layers = (
{
anchors = (
{
name = bottom;
position = "{420, -86}";
},
{
name = bottom_right;
position = "{681, 0}";
},
{
name = top;
position = "{420, 778}";
},
{
name = topleft;
position = "{80, 678}";
},
{
name = topright;
position = "{760, 678}";
}
);
layerId = "CD31F824-B3E8-4361-8C79-B14E59C0EC84";
paths = (
{
closed = 1;
nodes = (
"760 0 LINE",
"760 86 LINE",
"176 86 LINE",
"176 296 LINE",
"760 296 LINE",
"760 382 LINE",
"176 382 LINE",
"176 592 LINE",
"760 592 LINE",
"760 667 LINE",
"786 683 OFFCURVE",
"795 690 OFFCURVE",
"822 708 CURVE",
"869 670 OFFCURVE",
"892 655 OFFCURVE",
"943 633 CURVE",
"975 652 OFFCURVE",
"1000 682 OFFCURVE",
"1016 730 CURVE",
"989 739 OFFCURVE",
"976 745 OFFCURVE",
"950 759 CURVE SMOOTH",
"925 772 OFFCURVE",
"903 788 OFFCURVE",
"878 808 CURVE",
"826 767 OFFCURVE",
"772 725 OFFCURVE",
"687 678 CURVE",
"80 678 LINE",
"80 0 LINE"
);
}
);
width = 927;
}
);
script = zanb;
category = Letter;
subCategory = Other;
},
{
glyphname = dzha_zanb.flat;
lastChange = "2020-01-25 05:19:36 +0000";
layers = (
{
anchors = (
{
name = bottom;
position = "{420, -86}";
},
{
name = bottom_right;
position = "{667, 0}";
},
{
name = top;
position = "{420, 778}";
},
{
name = topleft;
position = "{80, 678}";
},
{
name = topright;
position = "{760, 678}";
}
);
layerId = "CD31F824-B3E8-4361-8C79-B14E59C0EC84";
paths = (
{
closed = 1;
nodes = (
"760 0 LINE",
"760 86 LINE",
"176 86 LINE",
"176 296 LINE",
"426 296 LINE",
"444 220 OFFCURVE",
"513 163 OFFCURVE",
"595 163 CURVE SMOOTH",
"642 163 OFFCURVE",
"684 182 OFFCURVE",
"715 212 CURVE",
"648 272 LINE",
"634 260 OFFCURVE",
"615 253 OFFCURVE",
"595 253 CURVE SMOOTH",
"548 253 OFFCURVE",
"511 290 OFFCURVE",
"511 337 CURVE SMOOTH",
"511 383 OFFCURVE",
"548 420 OFFCURVE",
"595 420 CURVE SMOOTH",
"620 420 OFFCURVE",
"642 409 OFFCURVE",
"657 392 CURVE",
"725 450 LINE",
"693 487 OFFCURVE",
"647 510 OFFCURVE",
"595 510 CURVE SMOOTH",
"515 510 OFFCURVE",
"447 455 OFFCURVE",
"427 382 CURVE",
"176 382 LINE",
"176 592 LINE",
"760 592 LINE",
"760 667 LINE",
"786 683 OFFCURVE",
"795 690 OFFCURVE",
"822 708 CURVE",
"869 670 OFFCURVE",
"892 655 OFFCURVE",
"943 633 CURVE",
"975 652 OFFCURVE",
"1000 682 OFFCURVE",
"1016 730 CURVE",
"989 739 OFFCURVE",
"976 745 OFFCURVE",
"950 759 CURVE SMOOTH",
"925 772 OFFCURVE",
"903 788 OFFCURVE",
"878 808 CURVE",
"826 767 OFFCURVE",
"772 725 OFFCURVE",
"687 678 CURVE",
"80 678 LINE",
"80 0 LINE"
);
}
);
width = 927;
}
);
script = zanb;
category = Letter;
subCategory = Other;
},
{
glyphname = la_zanb.head;
lastChange = "2020-01-25 05:19:36 +0000";
layers = (
{
anchors = (
{
name = bottom;
position = "{420, 427}";
},
{
name = bottom_right;
position = "{664, 433}";
},
{
name = top;
position = "{420, 778}";
},
{
name = topleft;
position = "{80, 678}";
}
);
layerId = "CD31F824-B3E8-4361-8C79-B14E59C0EC84";
paths = (
{
closed = 1;
nodes = (
"760 341 LINE",
"760 678 LINE",
"664 678 LINE",
"664 427 LINE",
"468 427 LINE",
"468 678 LINE",
"80 678 LINE",
"80 504 LINE",
"176 504 LINE",
"176 592 LINE",
"372 592 LINE",
"372 341 LINE"
);
}
);
width = 840;
}
);
script = zanb;
category = Letter;
subCategory = Other;
},
{
glyphname = sa_zanb.head;
lastChange = "2020-01-25 05:19:36 +0000";
layers = (
{
anchors = (
{
name = bottom;
position = "{420, 427}";
},
{
name = bottom_right;
position = "{664, 433}";
},
{
name = top;
position = "{420, 778}";
},
{
name = topleft;
position = "{80, 678}";
}
);
background = {
paths = (
{
closed = 1;
nodes = (
"80 678 LINE",
"80 500 LINE",
"176 500 LINE",
"176 592 LINE",
"664 445 LINE",
"664 341 LINE",
"760 341 LINE",
"760 678 LINE",
"664 678 LINE",
"664 531 LINE",
"176 678 LINE"
);
}
);
};
guideLines = (
{
angle = 154.669;
position = "{380, 475}";
}
);
layerId = "CD31F824-B3E8-4361-8C79-B14E59C0EC84";
paths = (
{
closed = 1;
nodes = (
"760 341 LINE",
"760 678 LINE",
"664 678 LINE",
"664 531 LINE",
"176 678 LINE",
"80 678 LINE",
"80 500 LINE",
"176 500 LINE",
"176 592 LINE",
"664 445 LINE",
"664 341 LINE"
);
}
);
width = 840;
}
);
script = zanb;
category = Letter;
subCategory = Other;
},
{
glyphname = ka_zanb.short;
lastChange = "2020-01-25 05:19:36 +0000";
layers = (
{
anchors = (
{
name = _bottom;
position = "{-420, -23}";
},
{
name = bottom;
position = "{-420, -536}";
}
);
background = {
paths = (
{
closed = 1;
nodes = (
"-760 -550 LINE",
"-372 -550 LINE",
"-372 -109 LINE",
"-176 -109 LINE",
"-176 -550 LINE",
"-80 -550 LINE",
"-80 -23 LINE",
"-760 -23 LINE",
"-760 -109 LINE",
"-468 -109 LINE",
"-468 -464 LINE",
"-664 -464 LINE",
"-664 -369 LINE",
"-760 -369 LINE"
);
}
);
};
layerId = "CD31F824-B3E8-4361-8C79-B14E59C0EC84";
paths = (
{
closed = 1;
nodes = (
"-372 -450 LINE",
"-372 -109 LINE",
"-176 -109 LINE",
"-176 -450 LINE",
"-80 -450 LINE",
"-80 -23 LINE",
"-760 -23 LINE",
"-760 -109 LINE",
"-468 -109 LINE",
"-468 -364 LINE",
"-664 -364 LINE",
"-664 -269 LINE",
"-760 -269 LINE",
"-760 -450 LINE"
);
}
);
width = 0;
}
);
script = zanb;
category = Mark;
subCategory = Nonspacing;
},
{
glyphname = ga_zanb.short;
lastChange = "2020-01-25 05:19:36 +0000";
layers = (
{
anchors = (
{
name = _bottom;
position = "{-420, -23}";
},
{
name = bottom;
position = "{-420, -536}";
},
{
name = bottom_right;
position = "{-176, -450}";
}
);
layerId = "CD31F824-B3E8-4361-8C79-B14E59C0EC84";
paths = (
{
closed = 1;
nodes = (
"-372 -450 LINE",
"-372 -109 LINE",
"-176 -109 LINE",
"-176 -450 LINE",
"-80 -450 LINE",
"-80 -23 LINE",
"-760 -23 LINE",
"-760 -450 LINE"
);
},
{
closed = 1;
nodes = (
"-664 -109 LINE",
"-468 -109 LINE",
"-468 -364 LINE",
"-664 -364 LINE"
);
}
);
width = 0;
}
);
script = zanb;
category = Mark;
subCategory = Nonspacing;
},
{
glyphname = nga_zanb.short;
lastChange = "2020-01-25 05:19:36 +0000";
layers = (
{
anchors = (
{
name = _bottom;
position = "{-420, -23}";
},
{
name = bottom;
position = "{-420, -536}";
},
{
name = bottom_right;
position = "{-176, -450}";
}
);
layerId = "CD31F824-B3E8-4361-8C79-B14E59C0EC84";
paths = (
{
closed = 1;
nodes = (
"-80 -450 LINE",
"-80 -364 LINE",
"-664 -364 LINE",
"-664 -279 LINE",
"-81 -279 LINE",
"-81 -23 LINE",
"-760 -23 LINE",
"-760 -109 LINE",
"-177 -109 LINE",
"-177 -193 LINE",
"-760 -193 LINE",
"-760 -450 LINE"
);
}
);
width = 0;
}
);
script = zanb;
category = Mark;
subCategory = Nonspacing;
},
{
glyphname = ca_zanb.short;
lastChange = "2020-01-25 05:19:36 +0000";
layers = (
{
anchors = (
{
name = _bottom;
position = "{-420, -23}";
},
{
name = bottom;
position = "{-420, -536}";
},
{
name = bottom_right;
position = "{-176, -450}";
}
);
layerId = "CD31F824-B3E8-4361-8C79-B14E59C0EC84";
paths = (
{
closed = 1;
nodes = (
"-80 -450 LINE",
"-80 -23 LINE",
"-760 -23 LINE",
"-760 -109 LINE",
"-468 -109 LINE",
"-468 -364 LINE",
"-760 -364 LINE",
"-760 -450 LINE"
);
},
{
closed = 1;
nodes = (
"-372 -109 LINE",
"-176 -109 LINE",
"-176 -364 LINE",
"-372 -364 LINE"
);
}
);
width = 0;
}
);
script = zanb;
category = Mark;
subCategory = Nonspacing;
},
{
glyphname = ja_zanb.short;
lastChange = "2020-01-25 05:19:36 +0000";
layers = (
{
anchors = (
{
name = _bottom;
position = "{-420, -23}";
},
{
name = bottom;
position = "{-420, -536}";
},
{
name = bottom_right;
position = "{-176, -453}";
}
);
layerId = "CD31F824-B3E8-4361-8C79-B14E59C0EC84";
paths = (
{
closed = 1;
nodes = (
"-80 -453 LINE",
"-80 -367 LINE",
"-664 -367 LINE",
"-664 -281 LINE",
"-80 -281 LINE",
"-80 -195 LINE",
"-664 -195 LINE",
"-664 -109 LINE",
"-80 -109 LINE",
"-80 -23 LINE",
"-760 -23 LINE",
"-760 -453 LINE"
);
}
);
width = 0;
}
);
script = zanb;
category = Mark;
subCategory = Nonspacing;
},
{
glyphname = nya_zanb.short;
lastChange = "2020-01-25 05:19:36 +0000";
layers = (
{
anchors = (
{
name = _bottom;
position = "{-420, -23}";
},
{
name = bottom;
position = "{-420, -536}";
},
{
name = bottom_right;
position = "{-176, -450}";
}
);
layerId = "CD31F824-B3E8-4361-8C79-B14E59C0EC84";
paths = (
{
closed = 1;
nodes = (
"-380 -450 LINE",
"-380 -364 LINE",
"-664 -364 LINE",
"-664 -276 LINE",
"-176 -276 LINE",
"-176 -450 LINE",
"-80 -450 LINE",
"-80 -23 LINE",
"-760 -23 LINE",
"-760 -109 LINE",
"-176 -109 LINE",
"-176 -190 LINE",
"-760 -190 LINE",
"-760 -450 LINE"
);
}
);
width = 0;
}
);
script = zanb;
category = Mark;
subCategory = Nonspacing;
},
{
glyphname = ta_zanb.short;
lastChange = "2020-01-25 05:19:36 +0000";
layers = (
{
anchors = (
{
name = _bottom;
position = "{-420, -23}";
},
{
name = bottom;
position = "{-420, -536}";
},
{
name = bottom_right;
position = "{-176, -450}";
}
);
layerId = "CD31F824-B3E8-4361-8C79-B14E59C0EC84";
paths = (
{
closed = 1;
nodes = (
"-664 -450 LINE",
"-664 -288 LINE",
"-176 -288 LINE",
"-176 -450 LINE",
"-80 -450 LINE",
"-80 -202 LINE",
"-664 -202 LINE",
"-664 -109 LINE",
"-80 -109 LINE",
"-80 -23 LINE",
"-760 -23 LINE",
"-760 -450 LINE"
);
}
);
width = 0;
}
);
script = zanb;
category = Mark;
subCategory = Nonspacing;
},
{
glyphname = da_zanb.short;
lastChange = "2020-01-25 05:19:36 +0000";
layers = (
{
anchors = (
{
name = _bottom;
position = "{-420, -23}";
},
{
name = bottom;
position = "{-420, -536}";
},
{
name = bottom_right;
position = "{-176, -450}";
}
);
layerId = "CD31F824-B3E8-4361-8C79-B14E59C0EC84";
paths = (
{
closed = 1;
nodes = (
"-80 -450 LINE",
"-80 -194 LINE",
"-664 -194 LINE",
"-664 -109 LINE",
"-80 -109 LINE",
"-80 -23 LINE",
"-760 -23 LINE",
"-760 -280 LINE",
"-176 -280 LINE",
"-176 -364 LINE",
"-760 -364 LINE",
"-760 -450 LINE"
);
}
);
width = 0;
}
);
script = zanb;
category = Mark;
subCategory = Nonspacing;
},
{
glyphname = na_zanb.short;
lastChange = "2020-01-25 05:19:36 +0000";
layers = (
{
anchors = (
{
name = _bottom;
position = "{-420, -23}";
},
{
name = bottom;
position = "{-420, -536}";
},
{
name = bottom_right;
position = "{-176, -450}";
}
);
layerId = "CD31F824-B3E8-4361-8C79-B14E59C0EC84";
paths = (
{
closed = 1;
nodes = (
"-372 -450 LINE",
"-372 -278 LINE",
"-176 -278 LINE",
"-176 -450 LINE",
"-80 -450 LINE",
"-80 -23 LINE",
"-760 -23 LINE",
"-760 -109 LINE",
"-176 -109 LINE",
"-176 -192 LINE",
"-760 -192 LINE",
"-760 -450 LINE"
);
},
{
closed = 1;
nodes = (
"-664 -278 LINE",
"-468 -278 LINE",
"-468 -364 LINE",
"-664 -364 LINE"
);
}
);
width = 0;
}
);
script = zanb;
category = Mark;
subCategory = Nonspacing;
},
{
glyphname = pa_zanb.short;
lastChange = "2020-01-25 05:19:36 +0000";
layers = (
{
anchors = (
{
name = _bottom;
position = "{-420, -23}";
},
{
name = bottom;
position = "{-420, -536}";
},
{
name = bottom_right;
position = "{-176, -450}";
}
);
layerId = "CD31F824-B3E8-4361-8C79-B14E59C0EC84";
paths = (
{
closed = 1;
nodes = (
"-80 -450 LINE",
"-80 -23 LINE",
"-176 -23 LINE",
"-176 -364 LINE",
"-664 -364 LINE",
"-664 -23 LINE",
"-760 -23 LINE",
"-760 -450 LINE"
);
}
);
width = 0;
}
);
script = zanb;
category = Mark;
subCategory = Nonspacing;
},
{
glyphname = ba_zanb.short;
lastChange = "2020-01-25 05:19:36 +0000";
layers = (
{
anchors = (
{
name = _bottom;
position = "{-420, -23}";
},
{
name = bottom;
position = "{-420, -536}";
},
{
name = bottom_right;
position = "{-176, -450}";
}
);
layerId = "CD31F824-B3E8-4361-8C79-B14E59C0EC84";
paths = (
{
closed = 1;
nodes = (
"-80 -450 LINE",
"-80 -23 LINE",
"-760 -23 LINE",
"-760 -450 LINE"
);
},
{
closed = 1;
nodes = (
"-664 -109 LINE",
"-176 -109 LINE",
"-176 -364 LINE",
"-664 -364 LINE"
);
}
);
width = 0;
}
);
script = zanb;
category = Mark;
subCategory = Nonspacing;
},
{
glyphname = ma_zanb.short;
lastChange = "2020-01-25 05:19:36 +0000";
layers = (
{
anchors = (
{
name = _bottom;
position = "{-420, -23}";
},
{
name = bottom;
position = "{-419, -536}";
},
{
name = bottom_right;
position = "{-175, -450}";
}
);
layerId = "CD31F824-B3E8-4361-8C79-B14E59C0EC84";
paths = (
{
closed = 1;
nodes = (
"-80 -450 LINE",
"-80 -23 LINE",
"-176 -23 LINE",
"-176 -364 LINE",
"-372 -364 LINE",
"-372 -23 LINE",
"-760 -23 LINE",
"-760 -450 LINE"
);
},
{
closed = 1;
nodes = (
"-664 -109 LINE",
"-468 -109 LINE",
"-468 -364 LINE",
"-664 -364 LINE"
);
}
);
width = 0;
}
);
script = zanb;
category = Mark;
subCategory = Nonspacing;
},
{
glyphname = tsa_zanb.short;
lastChange = "2020-01-25 05:19:36 +0000";
layers = (
{
anchors = (
{
name = _bottom;
position = "{-424, -23}";
},
{
name = bottom;
position = "{-420, -536}";
},
{
name = bottom_right;
position = "{-176, -450}";
}
);
background = {
components = (
{
name = _part.flag;
piece = {
flat = 100;
};
transform = "{1, 0, 0, 1, -193, -758}";
}
);
};
guideLines = (
{
angle = 180;
position = "{-424, -23}";
}
);
layerId = "CD31F824-B3E8-4361-8C79-B14E59C0EC84";
paths = (
{
closed = 1;
nodes = (
"-80 -450 LINE",
"-80 -26 LINE",
"-63 -15 OFFCURVE",
"-54 -8 OFFCURVE",
"-35 7 CURVE",
"12 -31 OFFCURVE",
"35 -46 OFFCURVE",
"86 -68 CURVE",
"118 -49 OFFCURVE",
"143 -19 OFFCURVE",
"159 29 CURVE",
"132 38 OFFCURVE",
"119 44 OFFCURVE",
"93 58 CURVE SMOOTH",
"68 71 OFFCURVE",
"46 87 OFFCURVE",
"21 107 CURVE",
"-31 66 OFFCURVE",
"-85 24 OFFCURVE",
"-170 -23 CURVE",
"-760 -23 LINE",
"-760 -109 LINE",
"-468 -109 LINE",
"-468 -364 LINE",
"-760 -364 LINE",
"-760 -450 LINE"
);
},
{
closed = 1;
nodes = (
"-372 -109 LINE",
"-176 -109 LINE",
"-176 -364 LINE",
"-372 -364 LINE"
);
}
);
width = 0;
}
);
script = zanb;
category = Mark;
subCategory = Nonspacing;
},
{
glyphname = dza_zanb.short;
lastChange = "2020-01-25 05:19:36 +0000";
layers = (
{
anchors = (
{
name = _bottom;
position = "{-420, -23}";
},
{
name = bottom;
position = "{-420, -536}";
},
{
name = bottom_right;
position = "{-159, -450}";
}
);
background = {
components = (
{
name = _part.flag;
piece = {
flat = 100;
};
transform = "{1, 0, 0, 1, -189, -758}";
}
);
};
layerId = "CD31F824-B3E8-4361-8C79-B14E59C0EC84";
paths = (
{
closed = 1;
nodes = (
"-80 -450 LINE",
"-80 -364 LINE",
"-664 -364 LINE",
"-664 -278 LINE",
"-80 -278 LINE",
"-80 -192 LINE",
"-664 -192 LINE",
"-664 -109 LINE",
"-107 -109 LINE",
"-107 -36 LINE",
"-79 -18 OFFCURVE",
"-70 -12 OFFCURVE",
"-42 7 CURVE",
"5 -31 OFFCURVE",
"28 -46 OFFCURVE",
"79 -68 CURVE",
"111 -49 OFFCURVE",
"136 -19 OFFCURVE",
"152 29 CURVE",
"125 38 OFFCURVE",
"112 44 OFFCURVE",
"86 58 CURVE SMOOTH",
"61 71 OFFCURVE",
"39 87 OFFCURVE",
"14 107 CURVE",
"-38 66 OFFCURVE",
"-92 24 OFFCURVE",
"-177 -23 CURVE",
"-760 -23 LINE",
"-760 -450 LINE"
);
}
);
width = 0;
}
);
script = zanb;
category = Mark;
subCategory = Nonspacing;
},
{
glyphname = ha_zanb.short;
lastChange = "2020-01-25 05:19:36 +0000";
layers = (
{
anchors = (
{
name = _bottom;
position = "{-420, -23}";
},
{
name = bottom;
position = "{-420, -536}";
},
{
name = bottom_right;
position = "{-176, -450}";
}
);
layerId = "CD31F824-B3E8-4361-8C79-B14E59C0EC84";
paths = (
{
closed = 1;
nodes = (
"-372 -450 LINE",
"-372 -271 LINE",
"-176 -271 LINE",
"-176 -450 LINE",
"-80 -450 LINE",
"-80 -185 LINE",
"-468 -185 LINE",
"-468 -364 LINE",
"-664 -364 LINE",
"-664 -109 LINE",
"-80 -109 LINE",
"-80 -23 LINE",
"-760 -23 LINE",
"-760 -450 LINE"
);
}
);
width = 0;
}
);
script = zanb;
category = Mark;
subCategory = Nonspacing;
},
{
glyphname = initialHeadMark_zanb;
lastChange = "2020-01-25 05:19:36 +0000";
layers = (
{
anchors = (
{
name = bottom;
position = "{420, -86}";
},
{
name = bottom_right;
position = "{664, 0}";
},
{
name = top;
position = "{420, 778}";
},
{
name = topleft;
position = "{80, 678}";
},
{
name = topright;
position = "{760, 678}";
}
);
background = {
paths = (
{
closed = 1;
nodes = (
"354 678 LINE",
"354 320 LINE",
"450 320 LINE",
"450 592 LINE",
"664 592 LINE",
"664 86 LINE",
"176 86 LINE",
"176 678 LINE",
"80 678 LINE",
"80 0 LINE",
"760 0 LINE",
"760 678 LINE"
);
}
);
};
layerId = "CD31F824-B3E8-4361-8C79-B14E59C0EC84";
paths = (
{
closed = 1;
nodes = (
"760 0 LINE",
"760 678 LINE",
"354 678 LINE",
"354 320 LINE",
"450 320 LINE",
"450 592 LINE",
"664 592 LINE",
"664 86 LINE",
"176 86 LINE",
"176 678 LINE",
"80 678 LINE",
"80 0 LINE"
);
}
);
width = 840;
}
);
unicode = 11A3F;
script = zanb;
category = Letter;
subCategory = Other;
},
{
glyphname = closingHeadMark_zanb;
lastChange = "2020-01-25 05:19:36 +0000";
layers = (
{
background = {
paths = (
{
closed = 1;
nodes = (
"630 0 LINE",
"726 0 LINE",
"726 678 LINE",
"630 678 LINE"
);
},
{
closed = 1;
nodes = (
"72 0 LINE",
"671 0 LINE",
"671 86 LINE",
"72 86 LINE"
);
},
{
closed = 1;
nodes = (
"407 592 LINE",
"726 592 LINE",
"726 678 LINE",
"407 678 LINE"
);
},
{
closed = 1;
nodes = (
"320 320 LINE",
"416 320 LINE",
"416 678 LINE",
"320 678 LINE"
);
}
);
};
layerId = "CD31F824-B3E8-4361-8C79-B14E59C0EC84";
paths = (
{
closed = 1;
nodes = (
"760 0 LINE",
"760 678 LINE",
"354 678 LINE",
"354 320 LINE",
"450 320 LINE",
"450 592 LINE",
"664 592 LINE",
"664 86 LINE",
"80 86 LINE",
"80 0 LINE"
);
}
);
width = 840;
}
);
unicode = 11A40;
script = zanb;
category = Letter;
subCategory = Other;
},
{
glyphname = tsheg_zanb;
lastChange = "2020-01-25 05:19:36 +0000";
layers = (
{
layerId = "CD31F824-B3E8-4361-8C79-B14E59C0EC84";
paths = (
{
closed = 1;
nodes = (
"177 587 LINE",
"177 737 LINE",
"80 737 LINE",
"80 587 LINE"
);
}
);
width = 257;
}
);
unicode = 11A41;
script = zanb;
category = Punctuation;
subCategory = Other;
},
{
glyphname = longTsheg_zanb;
lastChange = "2020-01-25 05:19:36 +0000";
layers = (
{
layerId = "CD31F824-B3E8-4361-8C79-B14E59C0EC84";
paths = (
{
closed = 1;
nodes = (
"760 504 LINE",
"760 800 LINE",
"80 800 LINE",
"80 504 LINE"
);
},
{
closed = 1;
nodes = (
"760 -50 LINE",
"760 246 LINE",
"80 246 LINE",
"80 -50 LINE"
);
},
{
closed = 1;
nodes = (
"176 160 LINE",
"664 160 LINE",
"664 36 LINE",
"176 36 LINE"
);
},
{
closed = 1;
nodes = (
"760 332 LINE",
"760 418 LINE",
"80 418 LINE",
"80 332 LINE"
);
},
{
closed = 1;
nodes = (
"176 714 LINE",
"664 714 LINE",
"664 590 LINE",
"176 590 LINE"
);
}
);
width = 840;
}
);
unicode = 11A44;
script = zanb;
category = Punctuation;
subCategory = Other;
},
{
glyphname = shad_zanb;
lastChange = "2020-01-25 05:19:36 +0000";
layers = (
{
layerId = "CD31F824-B3E8-4361-8C79-B14E59C0EC84";
paths = (
{
closed = 1;
nodes = (
"177 0 LINE",
"177 678 LINE",
"80 678 LINE",
"80 0 LINE"
);
}
);
width = 257;
}
);
unicode = 11A42;
script = zanb;
category = Punctuation;
subCategory = Other;
},
{
glyphname = initialDoubleHeadMark_zanb;
lastChange = "2020-01-25 05:19:36 +0000";
layers = (
{
layerId = "CD31F824-B3E8-4361-8C79-B14E59C0EC84";
paths = (
{
closed = 1;
nodes = (
"760 100 LINE",
"760 678 LINE",
"354 678 LINE",
"354 320 LINE",
"450 320 LINE",
"450 592 LINE",
"664 592 LINE",
"664 186 LINE",
"176 186 LINE",
"176 678 LINE",
"80 678 LINE",
"80 100 LINE"
);
},
{
closed = 1;
nodes = (
"760 -86 LINE",
"760 0 LINE",
"80 0 LINE",
"80 -86 LINE"
);
}
);
width = 840;
}
);
unicode = 11A45;
script = zanb;
category = Punctuation;
subCategory = Other;
},
{
glyphname = finalDoubleHeadMark_zanb;
lastChange = "2020-01-25 05:19:36 +0000";
layers = (
{
layerId = "CD31F824-B3E8-4361-8C79-B14E59C0EC84";
paths = (
{
closed = 1;
nodes = (
"760 100 LINE",
"760 678 LINE",
"354 678 LINE",
"354 320 LINE",
"450 320 LINE",
"450 592 LINE",
"664 592 LINE",
"664 186 LINE",
"80 186 LINE",
"80 100 LINE"
);
},
{
closed = 1;
nodes = (
"760 -86 LINE",
"760 0 LINE",
"80 0 LINE",
"80 -86 LINE"
);
}
